<svg width="31" height="19" viewBox="0 0 31 19" fill="none" xmlns="http://www.w3.org/2000/svg">
<g clip-path="url(#clip0_322_482)">
<path fill-rule="evenodd" clip-rule="evenodd" d="M31 16.625C31 17.9312 29.8375 19 28.4167 19H2.58333C1.1625 19 0 17.9312 0 16.625V2.375C0 1.06875 1.1625 0 2.58333 0H28.4167C29.8375 0 31 1.06875 31 2.375V16.625Z" fill="white"/>
<path opacity="0.6" d="M28.4167 0H2.58333C1.1625 0 0 1.06875 0 2.375V16.625C0 17.9312 1.1625 19 2.58333 19H28.4167C29.8375 19 31 17.9312 31 16.625V2.375C31 1.06875 29.8375 0 28.4167 0ZM28.4167 0.475C29.5564 0.475 30.4833 1.32715 30.4833 2.375V16.625C30.4833 17.6728 29.5564 18.525 28.4167 18.525H2.58333C1.44357 18.525 0.516667 17.6728 0.516667 16.625V2.375C0.516667 1.32715 1.44357 0.475 2.58333 0.475H28.4167Z" fill="#D0D0D0"/>
<path fill-rule="evenodd" clip-rule="evenodd" d="M7.2334 4.75H8.25433V14.3018H7.2334V4.75ZM13.514 4.75H14.5349V14.3018H13.514V4.75ZM18.737 4.75H19.7579V14.3018H18.737V4.75ZM20.8145 4.75H21.8354V14.3018H20.8145V4.75ZM22.9163 4.75H23.9372V14.3018H22.9163V4.75ZM15.5915 4.75H17.668V14.3018H15.5915V4.75ZM9.3228 4.75H12.444V14.3018H9.3228V4.75Z" fill="black"/>
</g>
<defs>
<clipPath id="clip0_322_482">
<rect width="31" height="19" fill="white"/>
</clipPath>
</defs>
</svg>
