<svg width="31" height="19" viewBox="0 0 31 19" fill="none" xmlns="http://www.w3.org/2000/svg">
<g clip-path="url(#clip0_349_278)">
<path fill-rule="evenodd" clip-rule="evenodd" d="M31 16.625C31 17.9312 29.8375 19 28.4167 19H2.58333C1.1625 19 0 17.9312 0 16.625V2.375C0 1.06875 1.1625 0 2.58333 0H28.4167C29.8375 0 31 1.06875 31 2.375V16.625Z" fill="white"/>
<path d="M28.4167 0H2.58333C1.1625 0 0 1.06875 0 2.375V16.625C0 17.9312 1.1625 19 2.58333 19H28.4167C29.8375 19 31 17.9312 31 16.625V2.375C31 1.06875 29.8375 0 28.4167 0ZM28.4167 0.475C29.5564 0.475 30.4833 1.32715 30.4833 2.375V16.625C30.4833 17.6728 29.5564 18.525 28.4167 18.525H2.58333C1.44357 18.525 0.516667 17.6728 0.516667 16.625V2.375C0.516667 1.32715 1.44357 0.475 2.58333 0.475H28.4167Z" fill="#B3B3B3"/>
<path d="M12.7827 12.2115C12.9974 12.2122 13.2102 12.1736 13.4086 12.0982C13.607 12.0226 13.7872 11.9116 13.9386 11.7715L15.6072 10.2375C15.6664 10.1857 15.745 10.1566 15.8269 10.1566C15.9087 10.1566 15.9874 10.1857 16.0466 10.2375L17.7216 11.7779C17.8733 11.9177 18.0535 12.0286 18.2521 12.104C18.4506 12.1794 18.6634 12.2179 18.8782 12.2172H19.2073L17.0928 14.1602C16.936 14.3047 16.7496 14.4194 16.5446 14.4976C16.3394 14.5758 16.1195 14.6162 15.8975 14.6162C15.6754 14.6162 15.4556 14.5758 15.2504 14.4976C15.0454 14.4194 14.859 14.3047 14.7022 14.1602L12.5791 12.2115H12.7827ZM18.8782 6.78329C18.6635 6.78269 18.4508 6.82124 18.2524 6.89671C18.0539 6.97218 17.8738 7.08307 17.7223 7.22297L16.0497 8.76395C15.9914 8.81737 15.9124 8.8474 15.8301 8.8474C15.7478 8.8474 15.6688 8.81737 15.6106 8.76395L13.9421 7.2296C13.7906 7.08952 13.6105 6.97849 13.4121 6.90296C13.2136 6.82742 13.0009 6.78889 12.7861 6.78961H12.5791L14.7022 4.83964C15.0193 4.54823 15.4492 4.38452 15.8975 4.38452C16.3458 4.38452 16.7758 4.54823 17.0928 4.83964L19.2073 6.78296L18.8782 6.78329Z" fill="#4AB7A8"/>
<path d="M10.8288 8.40137L12.0914 7.24038H12.7827C13.086 7.2407 13.3765 7.35104 13.5918 7.54695L15.2603 9.08098C15.3347 9.14975 15.4231 9.20427 15.5204 9.24146C15.6177 9.27873 15.7222 9.29788 15.8276 9.29788C15.933 9.29788 16.0374 9.27873 16.1348 9.24146C16.2322 9.20427 16.3206 9.14975 16.3949 9.08098L18.07 7.54096C18.2852 7.34482 18.5759 7.23462 18.879 7.23438H19.6987L20.9667 8.40013C21.2836 8.69156 21.4617 9.08683 21.4617 9.49898C21.4617 9.91114 21.2836 10.3064 20.9667 10.5979L19.6987 11.7636H18.8783C18.5754 11.7636 18.2845 11.653 18.0693 11.4571L16.3946 9.9164C16.2418 9.78223 16.0385 9.7074 15.8273 9.7074C15.616 9.7074 15.4128 9.78223 15.26 9.9164L13.5914 11.4504C13.3762 11.6463 13.0857 11.757 12.7824 11.757H12.0914L10.8288 10.5992C10.6718 10.4549 10.5472 10.2836 10.4623 10.095C10.3772 9.90646 10.3335 9.7044 10.3335 9.5003C10.3335 9.2962 10.3772 9.09407 10.4623 8.90553C10.5472 8.71699 10.6718 8.5457 10.8288 8.40137Z" fill="#4AB7A8"/>
</g>
<defs>
<clipPath id="clip0_349_278">
<rect width="31" height="19" fill="white"/>
</clipPath>
</defs>
</svg>
