<svg width="8" height="7" viewBox="0 0 8 7" fill="none" xmlns="http://www.w3.org/2000/svg">
<path fill-rule="evenodd" clip-rule="evenodd" d="M3.84444 0C1.72122 0 0 1.57484 0 3.5175C0 5.46017 1.72122 7.035 3.84444 7.035C5.96769 7.035 7.68889 5.46017 7.68889 3.5175C7.68889 1.57484 5.96769 0 3.84444 0ZM5.46458 2.873C5.56933 2.77717 5.56933 2.62178 5.46458 2.52595C5.35983 2.43011 5.19004 2.43011 5.08529 2.52595L3.43082 4.03969C3.39591 4.07163 3.3393 4.07163 3.3044 4.03969L2.60361 3.39849C2.49887 3.30265 2.32904 3.30265 2.2243 3.39849C2.11955 3.49433 2.11955 3.64973 2.2243 3.74556L2.92508 4.38676C3.16947 4.61038 3.56575 4.61038 3.81015 4.38676L5.46458 2.873Z" fill="#F6CA26"/>
</svg>
