<svg width="31" height="19" viewBox="0 0 31 19" fill="none" xmlns="http://www.w3.org/2000/svg">
<g clip-path="url(#clip0_322_506)">
<path fill-rule="evenodd" clip-rule="evenodd" d="M31 16.625C31 17.9312 29.8375 19 28.4167 19H2.58333C1.1625 19 0 17.9312 0 16.625V2.375C0 1.06875 1.1625 0 2.58333 0H28.4167C29.8375 0 31 1.06875 31 2.375V16.625Z" fill="white"/>
<path d="M25.4769 10.2728C25.3426 10.8775 24.7608 11.3325 24.0639 11.3325C23.9083 11.3325 23.7539 11.3097 23.6061 11.2641L23.2858 12.1438C23.5363 12.2208 23.7993 12.2602 24.0639 12.2597C25.2486 12.2597 26.2375 11.4864 26.4658 10.4585L25.4769 10.2728ZM22.44 11.6949L23.108 11C22.8094 10.7573 22.6218 10.4025 22.6218 10.0068C22.6218 9.61158 22.8099 9.25723 23.108 9.01451L22.4395 8.31958C21.9326 8.73236 21.6128 9.33561 21.6128 10.0068C21.6123 10.6784 21.9326 11.2822 22.44 11.6949ZM23.6066 8.74946C23.7502 8.70528 23.9037 8.68153 24.0639 8.68153C24.7614 8.68153 25.3436 9.13706 25.4769 9.74268L26.4658 9.55743C26.239 8.52858 25.2496 7.75433 24.0639 7.75433C23.7998 7.75386 23.5374 7.79328 23.2873 7.86976L23.6066 8.74946ZM20.6466 6.73926V11.0893L21.4676 11.4023L21.0791 12.2602L20.2669 11.95C20.0845 11.8773 19.961 11.7662 19.867 11.6413C19.7771 11.513 19.7099 11.3377 19.7099 11.1017V6.73973L20.6466 6.73926ZM16.906 7.75481C15.5538 7.73581 14.4399 8.72903 14.4192 9.97258C14.4115 10.439 14.5577 10.8746 14.8155 11.237L19.2537 9.49283C19.0041 8.51006 18.0535 7.77096 16.906 7.75481ZM15.4355 10.1469C15.4293 10.0947 15.4252 10.0415 15.4267 9.98731C15.4397 9.25438 16.0953 8.66966 16.892 8.68153C17.3255 8.68676 17.7104 8.86963 17.9708 9.15178L15.4355 10.1469ZM17.8773 10.9544C17.6097 11.1938 17.247 11.3392 16.8465 11.3339C16.5722 11.3297 16.3175 11.2541 16.1015 11.1283L15.5652 11.9139C15.9444 12.1348 16.3831 12.2545 16.8321 12.2602C17.5115 12.2697 18.131 12.0241 18.581 11.6189L17.8773 10.9544Z" fill="black"/>
<path fill-rule="evenodd" clip-rule="evenodd" d="M10.8647 9.93604C10.6451 10.9269 9.69236 11.6722 8.55001 11.6722C8.29529 11.6722 8.04212 11.6346 7.80032 11.5605L7.27539 13.0022C7.68614 13.1285 8.11652 13.1926 8.55001 13.1922C10.4916 13.1922 12.1114 11.9253 12.4844 10.2415L10.8647 9.93604Z" fill="#ED412F"/>
<path fill-rule="evenodd" clip-rule="evenodd" d="M5.88885 12.2651L6.98418 11.1265C6.49542 10.7284 6.18697 10.1475 6.18697 9.49962C6.18697 8.8522 6.49542 8.27127 6.98418 7.8737L5.88833 6.7356C5.05805 7.412 4.53467 8.39952 4.53467 9.5001C4.53415 10.6007 5.05805 11.5887 5.88885 12.2651Z" fill="#1AA5DF"/>
<path fill-rule="evenodd" clip-rule="evenodd" d="M7.80027 7.4395C8.04155 7.3654 8.29472 7.32788 8.54943 7.32788C9.69282 7.32788 10.6461 8.07458 10.8651 9.0659L12.4849 8.76238C12.1134 7.07708 10.4926 5.80835 8.54943 5.80835C8.11698 5.80788 7.68712 5.872 7.27637 5.99788L7.80027 7.4395Z" fill="#FFCA32"/>
</g>
<defs>
<clipPath id="clip0_322_506">
<rect width="31" height="19" fill="white"/>
</clipPath>
</defs>
</svg>
