<svg width="19" height="15" viewBox="0 0 19 15" fill="none" xmlns="http://www.w3.org/2000/svg">
<path d="M17.909 5.14531C18.0461 5.03633 18.25 5.13828 18.25 5.31055V12.5C18.25 13.4316 17.4941 14.1875 16.5625 14.1875H1.9375C1.00586 14.1875 0.25 13.4316 0.25 12.5V5.31406C0.25 5.13828 0.450391 5.03984 0.591016 5.14883C1.37852 5.76055 2.42266 6.5375 6.00859 9.14258C6.75039 9.68398 8.00195 10.823 9.25 10.816C10.5051 10.8266 11.7812 9.66289 12.4949 9.14258C16.0809 6.5375 17.1215 5.75703 17.909 5.14531ZM9.25 9.6875C10.0656 9.70156 11.2398 8.66094 11.8305 8.23203C16.4957 4.84648 16.8508 4.55117 17.9266 3.70742C18.1305 3.54922 18.25 3.30312 18.25 3.04297V2.375C18.25 1.44336 17.4941 0.6875 16.5625 0.6875H1.9375C1.00586 0.6875 0.25 1.44336 0.25 2.375V3.04297C0.25 3.30312 0.369531 3.5457 0.573437 3.70742C1.64922 4.54766 2.0043 4.84648 6.66953 8.23203C7.26016 8.66094 8.43437 9.70156 9.25 9.6875Z" fill="white"/>
</svg>
