<svg width="96" height="34" viewBox="0 0 96 34" fill="none" xmlns="http://www.w3.org/2000/svg">
<g clip-path="url(#clip0_322_299)">
<path d="M6.46463 23.7815C5.89896 23.2161 6.19384 23.3755 4.82947 23.0105C4.21043 22.8446 3.66624 22.5258 3.17413 22.1439L0.220819 29.3815C-0.0649429 30.0823 0.468827 30.8435 1.22522 30.8149L4.65502 30.6841L7.01402 33.1747C7.53477 33.7239 8.44869 33.5527 8.73446 32.852L12.1226 24.5486C11.417 24.9416 10.6339 25.1719 9.82413 25.1719C8.5548 25.1719 7.36228 24.6781 6.46463 23.7815ZM25.0607 29.3815L22.1074 22.1439C21.6152 22.5264 21.0711 22.8446 20.452 23.0105C19.0805 23.3775 19.3812 23.2174 18.8169 23.7815C17.9192 24.6781 16.726 25.1719 15.4567 25.1719C14.6469 25.1719 13.8639 24.9409 13.1582 24.5486L16.5464 32.852C16.8321 33.5527 17.7467 33.7239 18.2668 33.1747L20.6265 30.6841L24.0563 30.8149C24.8127 30.8435 25.3464 30.0816 25.0607 29.3815ZM17.2624 22.3091C18.257 21.2974 18.371 21.3846 19.7874 20.9987C20.6916 20.7521 21.3985 20.0332 21.6406 19.1132C22.1275 17.2654 22.0013 17.4886 23.3298 16.1365C23.9918 15.4631 24.2502 14.4813 24.0081 13.5613C23.5218 11.7148 23.5212 11.9725 24.0081 10.124C24.2502 9.20403 23.9918 8.22223 23.3298 7.54882C22.0013 6.1968 22.1275 6.41932 21.6406 4.57216C21.3985 3.65217 20.6916 2.93322 19.7874 2.68662C17.9726 2.19149 18.1913 2.32097 16.8614 0.968298C16.1994 0.294891 15.2341 0.031384 14.3299 0.277975C12.5158 0.772457 12.769 0.773108 10.9516 0.277975C10.0474 0.031384 9.08206 0.29424 8.42005 0.968298C7.09149 2.32032 7.3102 2.19149 5.49473 2.68662C4.59058 2.93322 3.88366 3.65217 3.64151 4.57216C3.15525 6.41932 3.28089 6.1968 1.95232 7.54882C1.29031 8.22223 1.03124 9.20403 1.27404 10.124C1.76029 11.9692 1.76094 11.7116 1.27404 13.5607C1.03189 14.4807 1.29031 15.4625 1.95232 16.1365C3.28089 17.4886 3.1546 17.2654 3.64151 19.1132C3.88366 20.0332 4.59058 20.7521 5.49473 20.9987C6.95153 21.3956 7.06024 21.3332 8.01907 22.3091C8.88027 23.1855 10.2219 23.3423 11.2568 22.6878C11.6707 22.4252 12.1508 22.2857 12.6411 22.2857C13.1313 22.2857 13.6114 22.4252 14.0253 22.6878C15.0596 23.3423 16.4012 23.1855 17.2624 22.3091ZM6.49978 11.6361C6.49978 8.18579 9.24935 5.38871 12.6407 5.38871C16.0321 5.38871 18.7817 8.18579 18.7817 11.6361C18.7817 15.0864 16.0321 17.8835 12.6407 17.8835C9.24935 17.8835 6.49978 15.0864 6.49978 11.6361Z" fill="#434242"/>
</g>
<path d="M35.2967 12.9522C36.6748 12.9522 37.3639 12.4808 37.3639 11.5378C37.3639 11.2477 37.3004 11.0029 37.1735 10.8034C37.0556 10.5949 36.8924 10.4181 36.6839 10.273C36.4754 10.1189 36.2351 9.98742 35.9631 9.87862C35.7002 9.76982 35.4191 9.66102 35.1199 9.55222C34.7754 9.43436 34.449 9.30289 34.1407 9.15782C33.8324 9.00369 33.565 8.82689 33.3383 8.62742C33.1116 8.41889 32.9303 8.17409 32.7943 7.89302C32.6674 7.61196 32.6039 7.27196 32.6039 6.87302C32.6039 6.04796 32.885 5.40422 33.4471 4.94182C34.0092 4.47942 34.7844 4.24822 35.7727 4.24822C36.3439 4.24822 36.8607 4.31169 37.3231 4.43862C37.7946 4.55649 38.1391 4.68796 38.3567 4.83302L37.9351 5.90742C37.7447 5.78956 37.4591 5.67622 37.0783 5.56742C36.7066 5.44956 36.2714 5.39062 35.7727 5.39062C35.5188 5.39062 35.2831 5.41782 35.0655 5.47222C34.8479 5.52662 34.6575 5.60822 34.4943 5.71702C34.3311 5.82582 34.1996 5.96636 34.0999 6.13862C34.0092 6.30182 33.9639 6.49676 33.9639 6.72342C33.9639 6.97729 34.0138 7.19036 34.1135 7.36262C34.2132 7.53489 34.3538 7.68902 34.5351 7.82502C34.7164 7.95196 34.925 8.06982 35.1607 8.17862C35.4055 8.28742 35.673 8.39622 35.9631 8.50502C36.3711 8.66822 36.7428 8.83142 37.0783 8.99462C37.4228 9.15782 37.7175 9.35276 37.9623 9.57942C38.2162 9.80609 38.4111 10.0781 38.5471 10.3954C38.6831 10.7037 38.7511 11.08 38.7511 11.5242C38.7511 12.3493 38.4474 12.984 37.8399 13.4282C37.2415 13.8725 36.3938 14.0946 35.2967 14.0946C34.925 14.0946 34.5804 14.0674 34.2631 14.013C33.9548 13.9677 33.6783 13.9133 33.4335 13.8498C33.1887 13.7773 32.9756 13.7048 32.7943 13.6322C32.622 13.5506 32.486 13.4826 32.3863 13.4282L32.7807 12.3402C32.9892 12.4581 33.3066 12.5896 33.7327 12.7346C34.1588 12.8797 34.6802 12.9522 35.2967 12.9522ZM42.6574 12.9794C42.9566 12.9794 43.2195 12.9749 43.4462 12.9658C43.6819 12.9477 43.8768 12.9205 44.031 12.8842V10.7762C43.9403 10.7309 43.7907 10.6946 43.5822 10.6674C43.3827 10.6312 43.1379 10.613 42.8478 10.613C42.6574 10.613 42.4534 10.6266 42.2358 10.6538C42.0272 10.681 41.8323 10.74 41.651 10.8306C41.4787 10.9122 41.3336 11.0301 41.2158 11.1842C41.0979 11.3293 41.039 11.5242 41.039 11.769C41.039 12.2224 41.184 12.5397 41.4742 12.721C41.7643 12.8933 42.1587 12.9794 42.6574 12.9794ZM42.5486 6.64182C43.0563 6.64182 43.4824 6.70982 43.827 6.84582C44.1806 6.97276 44.4616 7.15862 44.6702 7.40342C44.8878 7.63916 45.0419 7.92476 45.1326 8.26022C45.2232 8.58662 45.2686 8.94929 45.2686 9.34822V13.7682C45.1598 13.7864 45.0056 13.8136 44.8062 13.8498C44.6158 13.877 44.3982 13.9042 44.1534 13.9314C43.9086 13.9586 43.6411 13.9813 43.351 13.9994C43.0699 14.0266 42.7888 14.0402 42.5078 14.0402C42.1088 14.0402 41.7416 13.9994 41.4062 13.9178C41.0707 13.8362 40.7806 13.7093 40.5358 13.537C40.291 13.3557 40.1006 13.12 39.9646 12.8298C39.8286 12.5397 39.7606 12.1906 39.7606 11.7826C39.7606 11.3928 39.8376 11.0573 39.9918 10.7762C40.155 10.4952 40.3726 10.2685 40.6446 10.0962C40.9166 9.92396 41.2339 9.79702 41.5966 9.71542C41.9592 9.63382 42.34 9.59302 42.739 9.59302C42.8659 9.59302 42.9974 9.60209 43.1334 9.62022C43.2694 9.62929 43.3963 9.64742 43.5142 9.67462C43.6411 9.69276 43.7499 9.71089 43.8406 9.72902C43.9312 9.74716 43.9947 9.76076 44.031 9.76982V9.41622C44.031 9.20769 44.0083 9.00369 43.963 8.80422C43.9176 8.59569 43.836 8.41436 43.7182 8.26022C43.6003 8.09702 43.4371 7.97009 43.2286 7.87942C43.0291 7.77969 42.7662 7.72982 42.4398 7.72982C42.0227 7.72982 41.6555 7.76156 41.3382 7.82502C41.0299 7.87942 40.7987 7.93836 40.6446 8.00182L40.495 6.95462C40.6582 6.88209 40.9302 6.81409 41.311 6.75062C41.6918 6.67809 42.1043 6.64182 42.5486 6.64182ZM48.5525 6.81862H51.2317V7.87942H48.5525V11.1434C48.5525 11.497 48.5797 11.7917 48.6341 12.0274C48.6885 12.2541 48.7701 12.4354 48.8789 12.5714C48.9877 12.6984 49.1237 12.789 49.2869 12.8434C49.4501 12.8978 49.6405 12.925 49.8581 12.925C50.2389 12.925 50.5426 12.8842 50.7693 12.8026C51.005 12.712 51.1682 12.6485 51.2589 12.6122L51.5037 13.6594C51.3767 13.7229 51.1546 13.8 50.8373 13.8906C50.5199 13.9904 50.1573 14.0402 49.7493 14.0402C49.2687 14.0402 48.8698 13.9813 48.5525 13.8634C48.2442 13.7365 47.9949 13.5506 47.8045 13.3058C47.6141 13.061 47.4781 12.7618 47.3965 12.4082C47.3239 12.0456 47.2877 11.6285 47.2877 11.157V4.84662L48.5525 4.62902V6.81862ZM54.1059 13.8906H52.8411V6.81862H54.1059V13.8906ZM53.4667 5.54022C53.2401 5.54022 53.0451 5.46769 52.8819 5.32262C52.7278 5.16849 52.6507 4.96449 52.6507 4.71062C52.6507 4.45676 52.7278 4.25729 52.8819 4.11222C53.0451 3.95809 53.2401 3.88102 53.4667 3.88102C53.6934 3.88102 53.8838 3.95809 54.0379 4.11222C54.2011 4.25729 54.2827 4.45676 54.2827 4.71062C54.2827 4.96449 54.2011 5.16849 54.0379 5.32262C53.8838 5.46769 53.6934 5.54022 53.4667 5.54022ZM57.9266 12.9794C58.4434 12.9794 58.8242 12.9114 59.069 12.7754C59.3228 12.6394 59.4498 12.4218 59.4498 12.1226C59.4498 11.8144 59.3274 11.5696 59.0826 11.3882C58.8378 11.2069 58.4343 11.0029 57.8722 10.7762C57.6002 10.6674 57.3372 10.5586 57.0834 10.4498C56.8386 10.332 56.6255 10.196 56.4442 10.0418C56.2628 9.88769 56.1178 9.70182 56.009 9.48422C55.9002 9.26662 55.8458 8.99916 55.8458 8.68182C55.8458 8.05622 56.077 7.56209 56.5394 7.19942C57.0018 6.82769 57.6319 6.64182 58.4298 6.64182C58.6292 6.64182 58.8287 6.65542 59.0282 6.68262C59.2276 6.70076 59.4135 6.72796 59.5858 6.76422C59.758 6.79142 59.9076 6.82316 60.0346 6.85942C60.1706 6.89569 60.2748 6.92742 60.3474 6.95462L60.1162 8.04262C59.9802 7.97009 59.7671 7.89756 59.477 7.82502C59.1868 7.74342 58.8378 7.70262 58.4298 7.70262C58.0762 7.70262 57.7679 7.77516 57.505 7.92022C57.242 8.05622 57.1106 8.27382 57.1106 8.57302C57.1106 8.72716 57.1378 8.86316 57.1922 8.98102C57.2556 9.09889 57.3463 9.20769 57.4642 9.30742C57.5911 9.39809 57.7452 9.48422 57.9266 9.56582C58.1079 9.64742 58.3255 9.73356 58.5794 9.82422C58.9148 9.95116 59.214 10.0781 59.477 10.205C59.7399 10.3229 59.962 10.4634 60.1434 10.6266C60.3338 10.7898 60.4788 10.9893 60.5786 11.225C60.6783 11.4517 60.7282 11.7328 60.7282 12.0682C60.7282 12.721 60.4834 13.2152 59.9938 13.5506C59.5132 13.8861 58.8242 14.0538 57.9266 14.0538C57.301 14.0538 56.8114 13.9994 56.4578 13.8906C56.1042 13.7909 55.8639 13.7138 55.737 13.6594L55.9682 12.5714C56.1132 12.6258 56.3444 12.7074 56.6618 12.8162C56.9791 12.925 57.4007 12.9794 57.9266 12.9794ZM65.1113 3.33702C65.483 3.33702 65.8004 3.36422 66.0633 3.41862C66.3353 3.47302 66.5257 3.52289 66.6345 3.56822L66.4033 4.65622C66.2945 4.60182 66.1404 4.55196 65.9409 4.50662C65.7414 4.45222 65.4966 4.42502 65.2065 4.42502C64.6172 4.42502 64.2046 4.58822 63.9689 4.91462C63.7332 5.23196 63.6153 5.66262 63.6153 6.20662V6.81862H66.3353V7.87942H63.6153V13.8906H62.3505V6.17942C62.3505 5.27276 62.5726 4.57462 63.0169 4.08502C63.4612 3.58636 64.1593 3.33702 65.1113 3.33702ZM69.9902 12.9794C70.2894 12.9794 70.5523 12.9749 70.779 12.9658C71.0147 12.9477 71.2097 12.9205 71.3638 12.8842V10.7762C71.2731 10.7309 71.1235 10.6946 70.915 10.6674C70.7155 10.6312 70.4707 10.613 70.1806 10.613C69.9902 10.613 69.7862 10.6266 69.5686 10.6538C69.3601 10.681 69.1651 10.74 68.9838 10.8306C68.8115 10.9122 68.6665 11.0301 68.5486 11.1842C68.4307 11.3293 68.3718 11.5242 68.3718 11.769C68.3718 12.2224 68.5169 12.5397 68.807 12.721C69.0971 12.8933 69.4915 12.9794 69.9902 12.9794ZM69.8814 6.64182C70.3891 6.64182 70.8153 6.70982 71.1598 6.84582C71.5134 6.97276 71.7945 7.15862 72.003 7.40342C72.2206 7.63916 72.3747 7.92476 72.4654 8.26022C72.5561 8.58662 72.6014 8.94929 72.6014 9.34822V13.7682C72.4926 13.7864 72.3385 13.8136 72.139 13.8498C71.9486 13.877 71.731 13.9042 71.4862 13.9314C71.2414 13.9586 70.9739 13.9813 70.6838 13.9994C70.4027 14.0266 70.1217 14.0402 69.8406 14.0402C69.4417 14.0402 69.0745 13.9994 68.739 13.9178C68.4035 13.8362 68.1134 13.7093 67.8686 13.537C67.6238 13.3557 67.4334 13.12 67.2974 12.8298C67.1614 12.5397 67.0934 12.1906 67.0934 11.7826C67.0934 11.3928 67.1705 11.0573 67.3246 10.7762C67.4878 10.4952 67.7054 10.2685 67.9774 10.0962C68.2494 9.92396 68.5667 9.79702 68.9294 9.71542C69.2921 9.63382 69.6729 9.59302 70.0718 9.59302C70.1987 9.59302 70.3302 9.60209 70.4662 9.62022C70.6022 9.62929 70.7291 9.64742 70.847 9.67462C70.9739 9.69276 71.0827 9.71089 71.1734 9.72902C71.2641 9.74716 71.3275 9.76076 71.3638 9.76982V9.41622C71.3638 9.20769 71.3411 9.00369 71.2958 8.80422C71.2505 8.59569 71.1689 8.41436 71.051 8.26022C70.9331 8.09702 70.7699 7.97009 70.5614 7.87942C70.3619 7.77969 70.099 7.72982 69.7726 7.72982C69.3555 7.72982 68.9883 7.76156 68.671 7.82502C68.3627 7.87942 68.1315 7.93836 67.9774 8.00182L67.8278 6.95462C67.991 6.88209 68.263 6.81409 68.6438 6.75062C69.0246 6.67809 69.4371 6.64182 69.8814 6.64182ZM77.9389 14.0538L77.7893 14.3938C78.0522 14.5208 78.2426 14.6568 78.3605 14.8018C78.4783 14.956 78.5373 15.1781 78.5373 15.4682C78.5373 15.568 78.5146 15.6768 78.4693 15.7946C78.4239 15.9125 78.3469 16.0213 78.2381 16.121C78.1293 16.2208 77.9842 16.3024 77.8029 16.3658C77.6215 16.4293 77.3994 16.461 77.1365 16.461C76.9007 16.461 76.6831 16.4429 76.4837 16.4066C76.2933 16.3704 76.1391 16.3296 76.0213 16.2842L76.1709 15.509C76.2797 15.5453 76.393 15.577 76.5109 15.6042C76.6378 15.6314 76.7783 15.645 76.9325 15.645C77.2589 15.645 77.4221 15.5408 77.4221 15.3322C77.4221 15.2325 77.3722 15.1464 77.2725 15.0738C77.1727 15.0104 77.0322 14.9424 76.8509 14.8698L76.7557 14.829C76.7919 14.7202 76.8418 14.5888 76.9053 14.4346C76.9687 14.2805 77.0367 14.1354 77.1093 13.9994C76.6469 13.936 76.2389 13.8045 75.8853 13.605C75.5407 13.3965 75.2506 13.1336 75.0149 12.8162C74.7791 12.4989 74.6023 12.1362 74.4845 11.7282C74.3666 11.3112 74.3077 10.8578 74.3077 10.3682C74.3077 9.82422 74.3847 9.32556 74.5389 8.87222C74.7021 8.41889 74.9287 8.02902 75.2189 7.70262C75.509 7.36716 75.8626 7.10876 76.2797 6.92742C76.7058 6.73702 77.1773 6.64182 77.6941 6.64182C78.0114 6.64182 78.3287 6.66902 78.6461 6.72342C78.9634 6.77782 79.2671 6.86396 79.5573 6.98182L79.2717 8.05622C79.0813 7.96556 78.8591 7.89302 78.6053 7.83862C78.3605 7.78422 78.0975 7.75702 77.8165 7.75702C77.1093 7.75702 76.5653 7.97916 76.1845 8.42342C75.8127 8.86769 75.6269 9.51596 75.6269 10.3682C75.6269 10.749 75.6677 11.0981 75.7493 11.4154C75.8399 11.7328 75.9759 12.0048 76.1573 12.2314C76.3477 12.4581 76.5879 12.6349 76.8781 12.7618C77.1682 12.8797 77.5218 12.9386 77.9389 12.9386C78.2743 12.9386 78.5781 12.9069 78.8501 12.8434C79.1221 12.78 79.3351 12.712 79.4893 12.6394L79.6661 13.7002C79.5935 13.7365 79.4938 13.7773 79.3669 13.8226C79.249 13.8589 79.113 13.8906 78.9589 13.9178C78.8047 13.9541 78.637 13.9813 78.4557 13.9994C78.2834 14.0266 78.1111 14.0448 77.9389 14.0538ZM83.4175 12.9794C83.7167 12.9794 83.9797 12.9749 84.2063 12.9658C84.4421 12.9477 84.637 12.9205 84.7911 12.8842V10.7762C84.7005 10.7309 84.5509 10.6946 84.3423 10.6674C84.1429 10.6312 83.8981 10.613 83.6079 10.613C83.4175 10.613 83.2135 10.6266 82.9959 10.6538C82.7874 10.681 82.5925 10.74 82.4111 10.8306C82.2389 10.9122 82.0938 11.0301 81.9759 11.1842C81.8581 11.3293 81.7991 11.5242 81.7991 11.769C81.7991 12.2224 81.9442 12.5397 82.2343 12.721C82.5245 12.8933 82.9189 12.9794 83.4175 12.9794ZM83.3087 6.64182C83.8165 6.64182 84.2426 6.70982 84.5871 6.84582C84.9407 6.97276 85.2218 7.15862 85.4303 7.40342C85.6479 7.63916 85.8021 7.92476 85.8927 8.26022C85.9834 8.58662 86.0287 8.94929 86.0287 9.34822V13.7682C85.9199 13.7864 85.7658 13.8136 85.5663 13.8498C85.3759 13.877 85.1583 13.9042 84.9135 13.9314C84.6687 13.9586 84.4013 13.9813 84.1111 13.9994C83.8301 14.0266 83.549 14.0402 83.2679 14.0402C82.869 14.0402 82.5018 13.9994 82.1663 13.9178C81.8309 13.8362 81.5407 13.7093 81.2959 13.537C81.0511 13.3557 80.8607 13.12 80.7247 12.8298C80.5887 12.5397 80.5207 12.1906 80.5207 11.7826C80.5207 11.3928 80.5978 11.0573 80.7519 10.7762C80.9151 10.4952 81.1327 10.2685 81.4047 10.0962C81.6767 9.92396 81.9941 9.79702 82.3567 9.71542C82.7194 9.63382 83.1002 9.59302 83.4991 9.59302C83.6261 9.59302 83.7575 9.60209 83.8935 9.62022C84.0295 9.62929 84.1565 9.64742 84.2743 9.67462C84.4013 9.69276 84.5101 9.71089 84.6007 9.72902C84.6914 9.74716 84.7549 9.76076 84.7911 9.76982V9.41622C84.7911 9.20769 84.7685 9.00369 84.7231 8.80422C84.6778 8.59569 84.5962 8.41436 84.4783 8.26022C84.3605 8.09702 84.1973 7.97009 83.9887 7.87942C83.7893 7.77969 83.5263 7.72982 83.1999 7.72982C82.7829 7.72982 82.4157 7.76156 82.0983 7.82502C81.7901 7.87942 81.5589 7.93836 81.4047 8.00182L81.2551 6.95462C81.4183 6.88209 81.6903 6.81409 82.0711 6.75062C82.4519 6.67809 82.8645 6.64182 83.3087 6.64182ZM85.7567 4.22102C85.7114 4.32982 85.6479 4.45676 85.5663 4.60182C85.4938 4.74689 85.3986 4.88289 85.2807 5.00982C85.1629 5.12769 85.0223 5.23196 84.8591 5.32262C84.705 5.40422 84.5327 5.44502 84.3423 5.44502C84.161 5.44502 83.9887 5.41329 83.8255 5.34982C83.6714 5.28636 83.5218 5.21836 83.3767 5.14582C83.2226 5.07329 83.0911 5.01889 82.9823 4.98262C82.8735 4.94636 82.7693 4.92822 82.6695 4.92822C82.5154 4.92822 82.3703 4.99169 82.2343 5.11862C82.1074 5.24556 82.0077 5.38156 81.9351 5.52662L81.2823 5.20022C81.3186 5.09142 81.3775 4.96449 81.4591 4.81942C81.5407 4.67436 81.6405 4.54289 81.7583 4.42502C81.8762 4.29809 82.0122 4.19382 82.1663 4.11222C82.3295 4.02156 82.5063 3.97622 82.6967 3.97622C82.8781 3.97622 83.0458 4.00796 83.1999 4.07142C83.3631 4.13489 83.5173 4.20289 83.6623 4.27542C83.8165 4.34796 83.9479 4.40236 84.0567 4.43862C84.1655 4.47489 84.2698 4.49302 84.3695 4.49302C84.5237 4.49302 84.6642 4.42956 84.7911 4.30262C84.9271 4.17569 85.0314 4.03969 85.1039 3.89462L85.7567 4.22102ZM94.3718 10.3546C94.3718 10.9168 94.2902 11.4245 94.127 11.8778C93.9638 12.3312 93.7326 12.721 93.4334 13.0474C93.1433 13.3738 92.7942 13.6277 92.3862 13.809C91.9782 13.9813 91.5339 14.0674 91.0534 14.0674C90.5729 14.0674 90.1286 13.9813 89.7206 13.809C89.3126 13.6277 88.959 13.3738 88.6598 13.0474C88.3697 12.721 88.143 12.3312 87.9798 11.8778C87.8166 11.4245 87.735 10.9168 87.735 10.3546C87.735 9.80156 87.8166 9.29836 87.9798 8.84502C88.143 8.38262 88.3697 7.98822 88.6598 7.66182C88.959 7.33542 89.3126 7.08609 89.7206 6.91382C90.1286 6.73249 90.5729 6.64182 91.0534 6.64182C91.5339 6.64182 91.9782 6.73249 92.3862 6.91382C92.7942 7.08609 93.1433 7.33542 93.4334 7.66182C93.7326 7.98822 93.9638 8.38262 94.127 8.84502C94.2902 9.29836 94.3718 9.80156 94.3718 10.3546ZM93.0526 10.3546C93.0526 9.55676 92.8713 8.92662 92.5086 8.46422C92.155 7.99276 91.6699 7.75702 91.0534 7.75702C90.4369 7.75702 89.9473 7.99276 89.5846 8.46422C89.231 8.92662 89.0542 9.55676 89.0542 10.3546C89.0542 11.1525 89.231 11.7872 89.5846 12.2586C89.9473 12.721 90.4369 12.9522 91.0534 12.9522C91.6699 12.9522 92.155 12.721 92.5086 12.2586C92.8713 11.7872 93.0526 11.1525 93.0526 10.3546Z" fill="#434242"/>
<path d="M37.6223 21.0509C36.634 21.0509 35.9178 21.3275 35.4735 21.8805C35.0383 22.4245 34.8207 23.1725 34.8207 24.1245C34.8207 24.5869 34.8751 25.0085 34.9839 25.3893C35.0927 25.7611 35.2559 26.0829 35.4735 26.3549C35.6911 26.6269 35.9631 26.84 36.2895 26.9941C36.6159 27.1392 36.9967 27.2117 37.4319 27.2117C37.6676 27.2117 37.8671 27.2072 38.0303 27.1981C38.2026 27.1891 38.3522 27.1709 38.4791 27.1437V23.8661H40.6007V28.5309C40.3468 28.6307 39.9388 28.7349 39.3767 28.8438C38.8146 28.9616 38.121 29.0206 37.2959 29.0206C36.5887 29.0206 35.945 28.9118 35.3647 28.6941C34.7935 28.4765 34.3039 28.1592 33.8959 27.7421C33.4879 27.3251 33.1706 26.8128 32.9439 26.2053C32.7263 25.5979 32.6175 24.9043 32.6175 24.1245C32.6175 23.3357 32.7399 22.6376 32.9847 22.0301C33.2295 21.4227 33.565 20.9104 33.9911 20.4933C34.4172 20.0672 34.9159 19.7453 35.4871 19.5277C36.0674 19.3101 36.6839 19.2013 37.3367 19.2013C37.781 19.2013 38.1799 19.2331 38.5335 19.2965C38.8962 19.3509 39.2044 19.4189 39.4583 19.5005C39.7212 19.5731 39.9343 19.6501 40.0975 19.7317C40.2698 19.8133 40.3922 19.8768 40.4647 19.9221L39.8527 21.6221C39.5626 21.468 39.2271 21.3365 38.8463 21.2277C38.4746 21.1099 38.0666 21.0509 37.6223 21.0509ZM45.1723 27.4293C45.3718 27.4293 45.5622 27.4248 45.7435 27.4157C45.9249 27.4067 46.0699 27.3931 46.1787 27.3749V25.8381C46.0971 25.82 45.9747 25.8019 45.8115 25.7837C45.6483 25.7656 45.4987 25.7565 45.3627 25.7565C45.1723 25.7565 44.991 25.7701 44.8187 25.7973C44.6555 25.8155 44.5105 25.8563 44.3835 25.9197C44.2566 25.9832 44.1569 26.0693 44.0843 26.1781C44.0118 26.2869 43.9755 26.4229 43.9755 26.5861C43.9755 26.9035 44.0798 27.1256 44.2883 27.2525C44.5059 27.3704 44.8006 27.4293 45.1723 27.4293ZM45.0091 21.4997C45.6075 21.4997 46.1062 21.5677 46.5051 21.7037C46.9041 21.8397 47.2214 22.0347 47.4571 22.2885C47.7019 22.5424 47.8742 22.8507 47.9739 23.2133C48.0737 23.576 48.1235 23.9795 48.1235 24.4237V28.6397C47.8334 28.7032 47.4299 28.7757 46.9131 28.8574C46.3963 28.948 45.7707 28.9934 45.0363 28.9934C44.5739 28.9934 44.1523 28.9526 43.7715 28.871C43.3998 28.7893 43.0779 28.6579 42.8059 28.4765C42.5339 28.2861 42.3254 28.0413 42.1803 27.7421C42.0353 27.4429 41.9627 27.0757 41.9627 26.6405C41.9627 26.2235 42.0443 25.8699 42.2075 25.5797C42.3798 25.2896 42.6065 25.0584 42.8875 24.8861C43.1686 24.7139 43.4905 24.5915 43.8531 24.5189C44.2158 24.4373 44.5921 24.3965 44.9819 24.3965C45.2449 24.3965 45.4761 24.4101 45.6755 24.4373C45.8841 24.4555 46.0518 24.4827 46.1787 24.5189V24.3285C46.1787 23.984 46.0745 23.7075 45.8659 23.4989C45.6574 23.2904 45.2947 23.1861 44.7779 23.1861C44.4334 23.1861 44.0934 23.2133 43.7579 23.2677C43.4225 23.3131 43.1323 23.3811 42.8875 23.4717L42.6291 21.8397C42.747 21.8035 42.8921 21.7672 43.0643 21.7309C43.2457 21.6856 43.4406 21.6493 43.6491 21.6221C43.8577 21.5859 44.0753 21.5587 44.3019 21.5405C44.5377 21.5133 44.7734 21.4997 45.0091 21.4997ZM54.2671 23.4853C54.0858 23.44 53.8727 23.3947 53.6279 23.3493C53.3831 23.2949 53.1202 23.2677 52.8391 23.2677C52.7122 23.2677 52.558 23.2813 52.3767 23.3085C52.2044 23.3267 52.073 23.3493 51.9823 23.3765V28.8438H49.9559V22.0709C50.3186 21.944 50.7447 21.8261 51.2343 21.7173C51.733 21.5995 52.286 21.5405 52.8935 21.5405C53.0023 21.5405 53.1338 21.5496 53.2879 21.5677C53.442 21.5768 53.5962 21.5949 53.7503 21.6221C53.9044 21.6403 54.0586 21.6675 54.2127 21.7037C54.3668 21.7309 54.4983 21.7672 54.6071 21.8125L54.2671 23.4853ZM58.2942 27.4293C58.4937 27.4293 58.6841 27.4248 58.8654 27.4157C59.0467 27.4067 59.1918 27.3931 59.3006 27.3749V25.8381C59.219 25.82 59.0966 25.8019 58.9334 25.7837C58.7702 25.7656 58.6206 25.7565 58.4846 25.7565C58.2942 25.7565 58.1129 25.7701 57.9406 25.7973C57.7774 25.8155 57.6323 25.8563 57.5054 25.9197C57.3785 25.9832 57.2787 26.0693 57.2062 26.1781C57.1337 26.2869 57.0974 26.4229 57.0974 26.5861C57.0974 26.9035 57.2017 27.1256 57.4102 27.2525C57.6278 27.3704 57.9225 27.4293 58.2942 27.4293ZM58.131 21.4997C58.7294 21.4997 59.2281 21.5677 59.627 21.7037C60.0259 21.8397 60.3433 22.0347 60.579 22.2885C60.8238 22.5424 60.9961 22.8507 61.0958 23.2133C61.1955 23.576 61.2454 23.9795 61.2454 24.4237V28.6397C60.9553 28.7032 60.5518 28.7757 60.035 28.8574C59.5182 28.948 58.8926 28.9934 58.1582 28.9934C57.6958 28.9934 57.2742 28.9526 56.8934 28.871C56.5217 28.7893 56.1998 28.6579 55.9278 28.4765C55.6558 28.2861 55.4473 28.0413 55.3022 27.7421C55.1571 27.4429 55.0846 27.0757 55.0846 26.6405C55.0846 26.2235 55.1662 25.8699 55.3294 25.5797C55.5017 25.2896 55.7283 25.0584 56.0094 24.8861C56.2905 24.7139 56.6123 24.5915 56.975 24.5189C57.3377 24.4373 57.7139 24.3965 58.1038 24.3965C58.3667 24.3965 58.5979 24.4101 58.7974 24.4373C59.0059 24.4555 59.1737 24.4827 59.3006 24.5189V24.3285C59.3006 23.984 59.1963 23.7075 58.9878 23.4989C58.7793 23.2904 58.4166 23.1861 57.8998 23.1861C57.5553 23.1861 57.2153 23.2133 56.8798 23.2677C56.5443 23.3131 56.2542 23.3811 56.0094 23.4717L55.751 21.8397C55.8689 21.8035 56.0139 21.7672 56.1862 21.7309C56.3675 21.6856 56.5625 21.6493 56.771 21.6221C56.9795 21.5859 57.1971 21.5587 57.4238 21.5405C57.6595 21.5133 57.8953 21.4997 58.131 21.4997ZM63.0778 21.9349C63.4223 21.8352 63.8666 21.7445 64.4106 21.6629C64.9546 21.5723 65.5258 21.5269 66.1242 21.5269C66.7316 21.5269 67.2348 21.6085 67.6338 21.7717C68.0418 21.9259 68.3636 22.148 68.5994 22.4381C68.8351 22.7283 69.0028 23.0728 69.1026 23.4717C69.2023 23.8707 69.2522 24.3149 69.2522 24.8045V28.8438H67.2258V25.0493C67.2258 24.3965 67.1396 23.9341 66.9674 23.6621C66.7951 23.3901 66.4732 23.2541 66.0018 23.2541C65.8567 23.2541 65.7026 23.2632 65.5394 23.2813C65.3762 23.2904 65.2311 23.304 65.1042 23.3221V28.8438H63.0778V21.9349ZM71.0184 19.9085L73.0448 19.5821V21.6901H75.4792V23.3765H73.0448V25.8925C73.0448 26.3187 73.1173 26.6587 73.2624 26.9125C73.4165 27.1664 73.7202 27.2933 74.1736 27.2933C74.3912 27.2933 74.6133 27.2752 74.84 27.2389C75.0757 27.1936 75.2888 27.1347 75.4792 27.0621L75.7648 28.6397C75.52 28.7395 75.248 28.8256 74.9488 28.8982C74.6496 28.9707 74.2824 29.007 73.8472 29.007C73.2941 29.007 72.8362 28.9344 72.4736 28.7893C72.1109 28.6352 71.8208 28.4267 71.6032 28.1637C71.3856 27.8917 71.2314 27.5653 71.1408 27.1845C71.0592 26.8037 71.0184 26.3821 71.0184 25.9197V19.9085ZM79.1557 28.8438H77.1293V21.6901H79.1557V28.8438ZM79.3461 19.6229C79.3461 19.9947 79.2237 20.2893 78.9789 20.5069C78.7432 20.7155 78.4621 20.8197 78.1357 20.8197C77.8093 20.8197 77.5237 20.7155 77.2789 20.5069C77.0432 20.2893 76.9253 19.9947 76.9253 19.6229C76.9253 19.2512 77.0432 18.9611 77.2789 18.7525C77.5237 18.5349 77.8093 18.4261 78.1357 18.4261C78.4621 18.4261 78.7432 18.5349 78.9789 18.7525C79.2237 18.9611 79.3461 19.2512 79.3461 19.6229ZM82.7878 25.2125C82.7878 25.8381 82.9283 26.3413 83.2094 26.7221C83.4905 27.1029 83.9075 27.2933 84.4606 27.2933C84.6419 27.2933 84.8097 27.2888 84.9638 27.2797C85.1179 27.2616 85.2449 27.2435 85.3446 27.2253V23.5397C85.2177 23.4581 85.0499 23.3901 84.8414 23.3357C84.6419 23.2813 84.4379 23.2541 84.2294 23.2541C83.2683 23.2541 82.7878 23.9069 82.7878 25.2125ZM87.371 28.6125C87.1897 28.6669 86.9811 28.7213 86.7454 28.7757C86.5097 28.8211 86.2603 28.8619 85.9974 28.8982C85.7435 28.9344 85.4806 28.9616 85.2086 28.9798C84.9457 29.007 84.6918 29.0206 84.447 29.0206C83.8577 29.0206 83.3318 28.9344 82.8694 28.7621C82.407 28.5899 82.0171 28.3451 81.6998 28.0277C81.3825 27.7013 81.1377 27.3115 80.9654 26.8581C80.8022 26.3957 80.7206 25.8789 80.7206 25.3077C80.7206 24.7275 80.7931 24.2061 80.9382 23.7437C81.0833 23.2723 81.2918 22.8733 81.5638 22.5469C81.8358 22.2205 82.1667 21.9712 82.5566 21.7989C82.9555 21.6267 83.4089 21.5405 83.9166 21.5405C84.1977 21.5405 84.447 21.5677 84.6646 21.6221C84.8913 21.6765 85.1179 21.7536 85.3446 21.8533V18.6165L87.371 18.2901V28.6125ZM92.002 27.4293C92.2015 27.4293 92.3919 27.4248 92.5732 27.4157C92.7545 27.4067 92.8996 27.3931 93.0084 27.3749V25.8381C92.9268 25.82 92.8044 25.8019 92.6412 25.7837C92.478 25.7656 92.3284 25.7565 92.1924 25.7565C92.002 25.7565 91.8207 25.7701 91.6484 25.7973C91.4852 25.8155 91.3401 25.8563 91.2132 25.9197C91.0863 25.9832 90.9865 26.0693 90.914 26.1781C90.8415 26.2869 90.8052 26.4229 90.8052 26.5861C90.8052 26.9035 90.9095 27.1256 91.118 27.2525C91.3356 27.3704 91.6303 27.4293 92.002 27.4293ZM91.8388 21.4997C92.4372 21.4997 92.9359 21.5677 93.3348 21.7037C93.7337 21.8397 94.0511 22.0347 94.2868 22.2885C94.5316 22.5424 94.7039 22.8507 94.8036 23.2133C94.9033 23.576 94.9532 23.9795 94.9532 24.4237V28.6397C94.6631 28.7032 94.2596 28.7757 93.7428 28.8574C93.226 28.948 92.6004 28.9934 91.866 28.9934C91.4036 28.9934 90.982 28.9526 90.6012 28.871C90.2295 28.7893 89.9076 28.6579 89.6356 28.4765C89.3636 28.2861 89.1551 28.0413 89.01 27.7421C88.8649 27.4429 88.7924 27.0757 88.7924 26.6405C88.7924 26.2235 88.874 25.8699 89.0372 25.5797C89.2095 25.2896 89.4361 25.0584 89.7172 24.8861C89.9983 24.7139 90.3201 24.5915 90.6828 24.5189C91.0455 24.4373 91.4217 24.3965 91.8116 24.3965C92.0745 24.3965 92.3057 24.4101 92.5052 24.4373C92.7137 24.4555 92.8815 24.4827 93.0084 24.5189V24.3285C93.0084 23.984 92.9041 23.7075 92.6956 23.4989C92.4871 23.2904 92.1244 23.1861 91.6076 23.1861C91.2631 23.1861 90.9231 23.2133 90.5876 23.2677C90.2521 23.3131 89.962 23.3811 89.7172 23.4717L89.4588 21.8397C89.5767 21.8035 89.7217 21.7672 89.894 21.7309C90.0753 21.6856 90.2703 21.6493 90.4788 21.6221C90.6873 21.5859 90.9049 21.5587 91.1316 21.5405C91.3673 21.5133 91.6031 21.4997 91.8388 21.4997Z" fill="#434242"/>
<defs>
<clipPath id="clip0_322_299">
<rect width="25" height="33.3125" fill="#434242" transform="translate(0.140625 0.1875)"/>
</clipPath>
</defs>
</svg>
