<svg width="105" height="32" viewBox="0 0 105 32" fill="none" xmlns="http://www.w3.org/2000/svg">
<g clip-path="url(#clip0_322_306)">
<path d="M23.1465 15.0586H21.8076V11.042C21.8076 6.36711 18.003 2.5625 13.3281 2.5625C8.65325 2.5625 4.84863 6.36711 4.84863 11.042V15.0586H3.50977C2.03143 15.0586 0.832031 16.258 0.832031 17.7363V28.4473C0.832031 29.9256 2.03143 31.125 3.50977 31.125H23.1465C24.6248 31.125 25.8242 29.9256 25.8242 28.4473V17.7363C25.8242 16.258 24.6248 15.0586 23.1465 15.0586ZM17.3447 15.0586H9.31152V11.042C9.31152 8.82728 11.1134 7.02539 13.3281 7.02539C15.5428 7.02539 17.3447 8.82728 17.3447 11.042V15.0586Z" fill="#434242"/>
</g>
<path d="M36.297 4.37062C37.6207 4.37062 38.6362 4.62449 39.3434 5.13222C40.0597 5.63089 40.4178 6.37889 40.4178 7.37622C40.4178 7.92022 40.3181 8.38716 40.1186 8.77702C39.9282 9.15782 39.6471 9.47062 39.2754 9.71542C38.9127 9.95116 38.4685 10.1234 37.9426 10.2322C37.4167 10.341 36.8229 10.3954 36.161 10.3954H35.1138V13.8906H33.7946V4.60182C34.1663 4.51116 34.5789 4.45222 35.0322 4.42502C35.4946 4.38876 35.9162 4.37062 36.297 4.37062ZM36.4058 5.52662C35.8437 5.52662 35.413 5.54022 35.1138 5.56742V9.26662H36.1066C36.5599 9.26662 36.9679 9.23942 37.3306 9.18502C37.6933 9.12156 37.997 9.02182 38.2418 8.88582C38.4957 8.74076 38.6906 8.54582 38.8266 8.30102C38.9626 8.05622 39.0306 7.74342 39.0306 7.36262C39.0306 6.99996 38.9581 6.70076 38.813 6.46502C38.677 6.22929 38.4866 6.04342 38.2418 5.90742C38.0061 5.76236 37.7295 5.66262 37.4122 5.60822C37.0949 5.55382 36.7594 5.52662 36.4058 5.52662ZM44.5984 6.66902C44.7072 6.66902 44.8296 6.67809 44.9656 6.69622C45.1107 6.70529 45.2512 6.72342 45.3872 6.75062C45.5232 6.76876 45.6456 6.79142 45.7544 6.81862C45.8723 6.83676 45.9584 6.85489 46.0128 6.87302L45.7952 7.97462C45.6955 7.93836 45.5278 7.89756 45.292 7.85222C45.0654 7.79782 44.7707 7.77062 44.408 7.77062C44.1723 7.77062 43.9366 7.79782 43.7008 7.85222C43.4742 7.89756 43.3246 7.92929 43.252 7.94742V13.8906H41.9872V7.11782C42.2864 7.00902 42.6582 6.90929 43.1024 6.81862C43.5467 6.71889 44.0454 6.66902 44.5984 6.66902ZM48.4981 13.8906H47.2333V6.81862H48.4981V13.8906ZM47.8589 5.54022C47.6322 5.54022 47.4373 5.46769 47.2741 5.32262C47.12 5.16849 47.0429 4.96449 47.0429 4.71062C47.0429 4.45676 47.12 4.25729 47.2741 4.11222C47.4373 3.95809 47.6322 3.88102 47.8589 3.88102C48.0856 3.88102 48.276 3.95809 48.4301 4.11222C48.5933 4.25729 48.6749 4.45676 48.6749 4.71062C48.6749 4.96449 48.5933 5.16849 48.4301 5.32262C48.276 5.46769 48.0856 5.54022 47.8589 5.54022ZM56.1948 6.81862C55.8412 8.14236 55.4241 9.41169 54.9436 10.6266C54.4721 11.8416 54.0142 12.9296 53.57 13.8906H52.4276C51.9833 12.9296 51.5209 11.8416 51.0404 10.6266C50.5689 9.41169 50.1564 8.14236 49.8028 6.81862H51.1628C51.2716 7.26289 51.3985 7.73889 51.5436 8.24662C51.6977 8.74529 51.8564 9.24396 52.0196 9.74262C52.1918 10.2322 52.3641 10.7082 52.5364 11.1706C52.7086 11.633 52.8718 12.0456 53.026 12.4082C53.1801 12.0456 53.3433 11.633 53.5156 11.1706C53.6878 10.7082 53.8556 10.2322 54.0188 9.74262C54.191 9.24396 54.3497 8.74529 54.4948 8.24662C54.6489 7.73889 54.7804 7.26289 54.8892 6.81862H56.1948ZM59.8933 12.9794C60.1925 12.9794 60.4555 12.9749 60.6821 12.9658C60.9179 12.9477 61.1128 12.9205 61.2669 12.8842V10.7762C61.1763 10.7309 61.0267 10.6946 60.8181 10.6674C60.6187 10.6312 60.3739 10.613 60.0837 10.613C59.8933 10.613 59.6893 10.6266 59.4717 10.6538C59.2632 10.681 59.0683 10.74 58.8869 10.8306C58.7147 10.9122 58.5696 11.0301 58.4517 11.1842C58.3339 11.3293 58.2749 11.5242 58.2749 11.769C58.2749 12.2224 58.42 12.5397 58.7101 12.721C59.0003 12.8933 59.3947 12.9794 59.8933 12.9794ZM59.7845 6.64182C60.2923 6.64182 60.7184 6.70982 61.0629 6.84582C61.4165 6.97276 61.6976 7.15862 61.9061 7.40342C62.1237 7.63916 62.2779 7.92476 62.3685 8.26022C62.4592 8.58662 62.5045 8.94929 62.5045 9.34822V13.7682C62.3957 13.7864 62.2416 13.8136 62.0421 13.8498C61.8517 13.877 61.6341 13.9042 61.3893 13.9314C61.1445 13.9586 60.8771 13.9813 60.5869 13.9994C60.3059 14.0266 60.0248 14.0402 59.7437 14.0402C59.3448 14.0402 58.9776 13.9994 58.6421 13.9178C58.3067 13.8362 58.0165 13.7093 57.7717 13.537C57.5269 13.3557 57.3365 13.12 57.2005 12.8298C57.0645 12.5397 56.9965 12.1906 56.9965 11.7826C56.9965 11.3928 57.0736 11.0573 57.2277 10.7762C57.3909 10.4952 57.6085 10.2685 57.8805 10.0962C58.1525 9.92396 58.4699 9.79702 58.8325 9.71542C59.1952 9.63382 59.576 9.59302 59.9749 9.59302C60.1019 9.59302 60.2333 9.60209 60.3693 9.62022C60.5053 9.62929 60.6323 9.64742 60.7501 9.67462C60.8771 9.69276 60.9859 9.71089 61.0765 9.72902C61.1672 9.74716 61.2307 9.76076 61.2669 9.76982V9.41622C61.2669 9.20769 61.2443 9.00369 61.1989 8.80422C61.1536 8.59569 61.072 8.41436 60.9541 8.26022C60.8363 8.09702 60.6731 7.97009 60.4645 7.87942C60.2651 7.77969 60.0021 7.72982 59.6757 7.72982C59.2587 7.72982 58.8915 7.76156 58.5741 7.82502C58.2659 7.87942 58.0347 7.93836 57.8805 8.00182L57.7309 6.95462C57.8941 6.88209 58.1661 6.81409 58.5469 6.75062C58.9277 6.67809 59.3403 6.64182 59.7845 6.64182ZM67.6788 14.0538C67.1076 14.0538 66.6044 13.9632 66.1692 13.7818C65.7431 13.6005 65.3804 13.3466 65.0812 13.0202C64.7911 12.6938 64.5735 12.3085 64.4284 11.8642C64.2833 11.4109 64.2108 10.9122 64.2108 10.3682C64.2108 9.82422 64.2879 9.32556 64.442 8.87222C64.6052 8.41889 64.8319 8.02902 65.122 7.70262C65.4121 7.36716 65.7657 7.10876 66.1828 6.92742C66.6089 6.73702 67.0804 6.64182 67.5972 6.64182C67.9145 6.64182 68.2319 6.66902 68.5492 6.72342C68.8665 6.77782 69.1703 6.86396 69.4604 6.98182L69.1748 8.05622C68.9844 7.96556 68.7623 7.89302 68.5084 7.83862C68.2636 7.78422 68.0007 7.75702 67.7196 7.75702C67.0124 7.75702 66.4684 7.97916 66.0876 8.42342C65.7159 8.86769 65.53 9.51596 65.53 10.3682C65.53 10.749 65.5708 11.0981 65.6524 11.4154C65.7431 11.7328 65.8791 12.0048 66.0604 12.2314C66.2508 12.4581 66.4911 12.6349 66.7812 12.7618C67.0713 12.8797 67.4249 12.9386 67.842 12.9386C68.1775 12.9386 68.4812 12.9069 68.7532 12.8434C69.0252 12.78 69.2383 12.712 69.3924 12.6394L69.5692 13.7002C69.4967 13.7456 69.3924 13.7909 69.2564 13.8362C69.1204 13.8725 68.9663 13.9042 68.794 13.9314C68.6217 13.9677 68.4359 13.9949 68.2364 14.013C68.046 14.0402 67.8601 14.0538 67.6788 14.0538ZM72.1919 13.8906H70.9271V6.81862H72.1919V13.8906ZM71.5527 5.54022C71.326 5.54022 71.1311 5.46769 70.9679 5.32262C70.8137 5.16849 70.7367 4.96449 70.7367 4.71062C70.7367 4.45676 70.8137 4.25729 70.9679 4.11222C71.1311 3.95809 71.326 3.88102 71.5527 3.88102C71.7793 3.88102 71.9697 3.95809 72.1239 4.11222C72.2871 4.25729 72.3687 4.45676 72.3687 4.71062C72.3687 4.96449 72.2871 5.16849 72.1239 5.32262C71.9697 5.46769 71.7793 5.54022 71.5527 5.54022ZM78.9365 8.31462C78.7824 8.18769 78.5602 8.06529 78.2701 7.94742C77.98 7.82956 77.6626 7.77062 77.3181 7.77062C76.9554 7.77062 76.6426 7.83862 76.3797 7.97462C76.1258 8.10156 75.9173 8.28289 75.7541 8.51862C75.5909 8.74529 75.473 9.01729 75.4005 9.33462C75.328 9.65196 75.2917 9.99196 75.2917 10.3546C75.2917 11.1797 75.4957 11.8189 75.9037 12.2722C76.3117 12.7165 76.8557 12.9386 77.5357 12.9386C77.8802 12.9386 78.1658 12.925 78.3925 12.8978C78.6282 12.8616 78.8096 12.8253 78.9365 12.789V8.31462ZM78.9365 3.55462L80.2013 3.33702V13.6866C79.9112 13.7682 79.5394 13.8498 79.0861 13.9314C78.6328 14.013 78.1114 14.0538 77.5221 14.0538C76.9781 14.0538 76.4885 13.9677 76.0533 13.7954C75.6181 13.6232 75.2464 13.3784 74.9381 13.061C74.6298 12.7437 74.3896 12.3584 74.2173 11.905C74.0541 11.4426 73.9725 10.9258 73.9725 10.3546C73.9725 9.81062 74.0405 9.31196 74.1765 8.85862C74.3216 8.40529 74.5301 8.01542 74.8021 7.68902C75.0741 7.36262 75.405 7.10876 75.7949 6.92742C76.1938 6.74609 76.6472 6.65542 77.1549 6.65542C77.5629 6.65542 77.921 6.70982 78.2293 6.81862C78.5466 6.92742 78.7824 7.03169 78.9365 7.13142V3.55462ZM84.7691 12.9794C85.0683 12.9794 85.3312 12.9749 85.5579 12.9658C85.7936 12.9477 85.9886 12.9205 86.1427 12.8842V10.7762C86.052 10.7309 85.9024 10.6946 85.6939 10.6674C85.4944 10.6312 85.2496 10.613 84.9595 10.613C84.7691 10.613 84.5651 10.6266 84.3475 10.6538C84.139 10.681 83.944 10.74 83.7627 10.8306C83.5904 10.9122 83.4454 11.0301 83.3275 11.1842C83.2096 11.3293 83.1507 11.5242 83.1507 11.769C83.1507 12.2224 83.2958 12.5397 83.5859 12.721C83.876 12.8933 84.2704 12.9794 84.7691 12.9794ZM84.6603 6.64182C85.168 6.64182 85.5942 6.70982 85.9387 6.84582C86.2923 6.97276 86.5734 7.15862 86.7819 7.40342C86.9995 7.63916 87.1536 7.92476 87.2443 8.26022C87.335 8.58662 87.3803 8.94929 87.3803 9.34822V13.7682C87.2715 13.7864 87.1174 13.8136 86.9179 13.8498C86.7275 13.877 86.5099 13.9042 86.2651 13.9314C86.0203 13.9586 85.7528 13.9813 85.4627 13.9994C85.1816 14.0266 84.9006 14.0402 84.6195 14.0402C84.2206 14.0402 83.8534 13.9994 83.5179 13.9178C83.1824 13.8362 82.8923 13.7093 82.6475 13.537C82.4027 13.3557 82.2123 13.12 82.0763 12.8298C81.9403 12.5397 81.8723 12.1906 81.8723 11.7826C81.8723 11.3928 81.9494 11.0573 82.1035 10.7762C82.2667 10.4952 82.4843 10.2685 82.7563 10.0962C83.0283 9.92396 83.3456 9.79702 83.7083 9.71542C84.071 9.63382 84.4518 9.59302 84.8507 9.59302C84.9776 9.59302 85.1091 9.60209 85.2451 9.62022C85.3811 9.62929 85.508 9.64742 85.6259 9.67462C85.7528 9.69276 85.8616 9.71089 85.9523 9.72902C86.043 9.74716 86.1064 9.76076 86.1427 9.76982V9.41622C86.1427 9.20769 86.12 9.00369 86.0747 8.80422C86.0294 8.59569 85.9478 8.41436 85.8299 8.26022C85.712 8.09702 85.5488 7.97009 85.3403 7.87942C85.1408 7.77969 84.8779 7.72982 84.5515 7.72982C84.1344 7.72982 83.7672 7.76156 83.4499 7.82502C83.1416 7.87942 82.9104 7.93836 82.7563 8.00182L82.6067 6.95462C82.7699 6.88209 83.0419 6.81409 83.4227 6.75062C83.8035 6.67809 84.216 6.64182 84.6603 6.64182ZM94.0506 8.31462C93.8964 8.18769 93.6743 8.06529 93.3842 7.94742C93.094 7.82956 92.7767 7.77062 92.4322 7.77062C92.0695 7.77062 91.7567 7.83862 91.4938 7.97462C91.2399 8.10156 91.0314 8.28289 90.8682 8.51862C90.705 8.74529 90.5871 9.01729 90.5146 9.33462C90.442 9.65196 90.4058 9.99196 90.4058 10.3546C90.4058 11.1797 90.6098 11.8189 91.0178 12.2722C91.4258 12.7165 91.9698 12.9386 92.6498 12.9386C92.9943 12.9386 93.2799 12.925 93.5066 12.8978C93.7423 12.8616 93.9236 12.8253 94.0506 12.789V8.31462ZM94.0506 3.55462L95.3154 3.33702V13.6866C95.0252 13.7682 94.6535 13.8498 94.2002 13.9314C93.7468 14.013 93.2255 14.0538 92.6362 14.0538C92.0922 14.0538 91.6026 13.9677 91.1674 13.7954C90.7322 13.6232 90.3604 13.3784 90.0522 13.061C89.7439 12.7437 89.5036 12.3584 89.3314 11.905C89.1682 11.4426 89.0866 10.9258 89.0866 10.3546C89.0866 9.81062 89.1546 9.31196 89.2906 8.85862C89.4356 8.40529 89.6442 8.01542 89.9162 7.68902C90.1882 7.36262 90.5191 7.10876 90.909 6.92742C91.3079 6.74609 91.7612 6.65542 92.269 6.65542C92.677 6.65542 93.0351 6.70982 93.3434 6.81862C93.6607 6.92742 93.8964 7.03169 94.0506 7.13142V3.55462ZM97.0952 10.3682C97.0952 9.74262 97.1858 9.19862 97.3672 8.73622C97.5485 8.26476 97.7888 7.87489 98.088 7.56662C98.3872 7.25836 98.7317 7.02716 99.1216 6.87302C99.5114 6.71889 99.9104 6.64182 100.318 6.64182C101.27 6.64182 102 6.94102 102.508 7.53942C103.016 8.12876 103.27 9.03089 103.27 10.2458C103.27 10.3002 103.27 10.3728 103.27 10.4634C103.27 10.545 103.265 10.6221 103.256 10.6946H98.4144C98.4688 11.429 98.6818 11.9866 99.0536 12.3674C99.4253 12.7482 100.006 12.9386 100.794 12.9386C101.239 12.9386 101.61 12.9024 101.91 12.8298C102.218 12.7482 102.449 12.6712 102.603 12.5986L102.78 13.6594C102.626 13.741 102.354 13.8272 101.964 13.9178C101.583 14.0085 101.148 14.0538 100.658 14.0538C100.042 14.0538 99.5069 13.9632 99.0536 13.7818C98.6093 13.5914 98.2421 13.333 97.952 13.0066C97.6618 12.6802 97.4442 12.2949 97.2992 11.8506C97.1632 11.3973 97.0952 10.9032 97.0952 10.3682ZM101.95 9.67462C101.959 9.10342 101.814 8.63649 101.515 8.27382C101.225 7.90209 100.822 7.71622 100.305 7.71622C100.015 7.71622 99.7562 7.77516 99.5296 7.89302C99.312 8.00182 99.1261 8.14689 98.972 8.32822C98.8178 8.50956 98.6954 8.71809 98.6048 8.95382C98.5232 9.18956 98.4688 9.42982 98.4416 9.67462H101.95Z" fill="#434242"/>
<path d="M36.5418 19.3101C37.9471 19.3101 39.0261 19.5595 39.7786 20.0581C40.5311 20.5477 40.9074 21.3547 40.9074 22.4789C40.9074 23.6123 40.5266 24.4328 39.765 24.9405C39.0034 25.4392 37.9154 25.6885 36.501 25.6885H35.8346V28.8438H33.713V19.5549C34.1754 19.4643 34.665 19.4008 35.1818 19.3645C35.6986 19.3283 36.1519 19.3101 36.5418 19.3101ZM36.6778 21.1189C36.5237 21.1189 36.3695 21.1235 36.2154 21.1325C36.0703 21.1416 35.9434 21.1507 35.8346 21.1597V23.8797H36.501C37.2354 23.8797 37.7885 23.78 38.1602 23.5805C38.5319 23.3811 38.7178 23.0093 38.7178 22.4653C38.7178 22.2024 38.6679 21.9848 38.5682 21.8125C38.4775 21.6403 38.3415 21.5043 38.1602 21.4045C37.9879 21.2957 37.7749 21.2232 37.521 21.1869C37.2671 21.1416 36.9861 21.1189 36.6778 21.1189ZM46.6405 23.4853C46.4592 23.44 46.2461 23.3947 46.0013 23.3493C45.7565 23.2949 45.4936 23.2677 45.2125 23.2677C45.0856 23.2677 44.9315 23.2813 44.7501 23.3085C44.5779 23.3267 44.4464 23.3493 44.3557 23.3765V28.8438H42.3293V22.0709C42.692 21.944 43.1181 21.8261 43.6077 21.7173C44.1064 21.5995 44.6595 21.5405 45.2669 21.5405C45.3757 21.5405 45.5072 21.5496 45.6613 21.5677C45.8155 21.5768 45.9696 21.5949 46.1237 21.6221C46.2779 21.6403 46.432 21.6675 46.5861 21.7037C46.7403 21.7309 46.8717 21.7672 46.9805 21.8125L46.6405 23.4853ZM54.6252 25.2533C54.6252 25.8155 54.5436 26.3323 54.3804 26.8037C54.2172 27.2661 53.9815 27.6651 53.6732 28.0005C53.365 28.3269 52.9932 28.5808 52.558 28.7621C52.1319 28.9435 51.6514 29.0342 51.1164 29.0342C50.5906 29.0342 50.11 28.9435 49.6748 28.7621C49.2487 28.5808 48.8815 28.3269 48.5732 28.0005C48.265 27.6651 48.0247 27.2661 47.8524 26.8037C47.6802 26.3323 47.594 25.8155 47.594 25.2533C47.594 24.6912 47.6802 24.1789 47.8524 23.7165C48.0338 23.2541 48.2786 22.8597 48.5868 22.5333C48.9042 22.2069 49.2759 21.9531 49.702 21.7717C50.1372 21.5904 50.6087 21.4997 51.1164 21.4997C51.6332 21.4997 52.1047 21.5904 52.5308 21.7717C52.966 21.9531 53.3378 22.2069 53.646 22.5333C53.9543 22.8597 54.1946 23.2541 54.3668 23.7165C54.5391 24.1789 54.6252 24.6912 54.6252 25.2533ZM52.558 25.2533C52.558 24.6277 52.4311 24.1381 52.1772 23.7845C51.9324 23.4219 51.5788 23.2405 51.1164 23.2405C50.654 23.2405 50.2959 23.4219 50.042 23.7845C49.7882 24.1381 49.6612 24.6277 49.6612 25.2533C49.6612 25.8789 49.7882 26.3776 50.042 26.7493C50.2959 27.112 50.654 27.2933 51.1164 27.2933C51.5788 27.2933 51.9324 27.112 52.1772 26.7493C52.4311 26.3776 52.558 25.8789 52.558 25.2533ZM56.127 19.9085L58.1534 19.5821V21.6901H60.5878V23.3765H58.1534V25.8925C58.1534 26.3187 58.2259 26.6587 58.371 26.9125C58.5251 27.1664 58.8288 27.2933 59.2822 27.2933C59.4998 27.2933 59.7219 27.2752 59.9486 27.2389C60.1843 27.1936 60.3974 27.1347 60.5878 27.0621L60.8734 28.6397C60.6286 28.7395 60.3566 28.8256 60.0574 28.8982C59.7582 28.9707 59.391 29.007 58.9558 29.007C58.4027 29.007 57.9448 28.9344 57.5822 28.7893C57.2195 28.6352 56.9294 28.4267 56.7118 28.1637C56.4942 27.8917 56.34 27.5653 56.2494 27.1845C56.1678 26.8037 56.127 26.3821 56.127 25.9197V19.9085ZM61.6323 25.3213C61.6323 24.6867 61.7275 24.1336 61.9179 23.6621C62.1174 23.1816 62.3758 22.7827 62.6931 22.4653C63.0104 22.148 63.3731 21.9077 63.7811 21.7445C64.1982 21.5813 64.6243 21.4997 65.0595 21.4997C66.075 21.4997 66.8774 21.8125 67.4667 22.4381C68.056 23.0547 68.3507 23.9659 68.3507 25.1717C68.3507 25.2896 68.3462 25.4211 68.3371 25.5661C68.328 25.7021 68.319 25.8245 68.3099 25.9333H63.7131C63.7584 26.3504 63.9534 26.6813 64.2979 26.9261C64.6424 27.1709 65.1048 27.2933 65.6851 27.2933C66.0568 27.2933 66.4195 27.2616 66.7731 27.1981C67.1358 27.1256 67.4304 27.0395 67.6571 26.9397L67.9291 28.5853C67.8203 28.6397 67.6752 28.6941 67.4939 28.7485C67.3126 28.8029 67.1086 28.8483 66.8819 28.8846C66.6643 28.9299 66.4286 28.9662 66.1747 28.9934C65.9208 29.0206 65.667 29.0342 65.4131 29.0342C64.7694 29.0342 64.2072 28.939 63.7267 28.7485C63.2552 28.5581 62.8608 28.2997 62.5435 27.9733C62.2352 27.6379 62.004 27.2435 61.8499 26.7901C61.7048 26.3368 61.6323 25.8472 61.6323 25.3213ZM66.3923 24.5461C66.3832 24.3739 66.3515 24.2061 66.2971 24.0429C66.2518 23.8797 66.1747 23.7347 66.0659 23.6077C65.9662 23.4808 65.8347 23.3765 65.6715 23.2949C65.5174 23.2133 65.3224 23.1725 65.0867 23.1725C64.86 23.1725 64.6651 23.2133 64.5019 23.2949C64.3387 23.3675 64.2027 23.4672 64.0939 23.5941C63.9851 23.7211 63.899 23.8707 63.8355 24.0429C63.7811 24.2061 63.7403 24.3739 63.7131 24.5461H66.3923ZM71.6417 25.0357C71.6417 26.1691 72.0996 26.7357 73.0153 26.7357C73.2238 26.7357 73.4188 26.7085 73.6001 26.6541C73.7814 26.5997 73.9356 26.5363 74.0625 26.4637V23.2269C73.9628 23.2088 73.8449 23.1952 73.7089 23.1861C73.5729 23.168 73.4142 23.1589 73.2329 23.1589C72.698 23.1589 72.299 23.3357 72.0361 23.6893C71.7732 24.0429 71.6417 24.4917 71.6417 25.0357ZM76.0889 27.9461C76.0889 29.1158 75.7897 29.9816 75.1913 30.5438C74.602 31.115 73.6862 31.4006 72.4441 31.4006C72.0089 31.4006 71.5737 31.3598 71.1385 31.2782C70.7033 31.2056 70.2998 31.1059 69.9281 30.979L70.2817 29.279C70.599 29.4059 70.93 29.5056 71.2745 29.5782C71.6281 29.6507 72.027 29.687 72.4713 29.687C73.0516 29.687 73.4596 29.56 73.6953 29.3062C73.9401 29.0523 74.0625 28.7259 74.0625 28.3269V28.0685C73.8449 28.1683 73.6182 28.2453 73.3825 28.2997C73.1558 28.3451 72.9065 28.3677 72.6345 28.3677C71.6462 28.3677 70.8892 28.0776 70.3633 27.4973C69.8374 26.908 69.5745 26.0875 69.5745 25.0357C69.5745 24.5099 69.6561 24.0339 69.8193 23.6077C69.9825 23.1725 70.2182 22.8008 70.5265 22.4925C70.8438 22.1843 71.2292 21.9485 71.6825 21.7853C72.1358 21.6131 72.6481 21.5269 73.2193 21.5269C73.4641 21.5269 73.7134 21.5405 73.9673 21.5677C74.2302 21.5859 74.4886 21.6131 74.7425 21.6493C74.9964 21.6856 75.2366 21.7309 75.4633 21.7853C75.699 21.8307 75.9076 21.8805 76.0889 21.9349V27.9461ZM80.0159 28.8438H77.9895V21.6901H80.0159V28.8438ZM80.2063 19.6229C80.2063 19.9947 80.0839 20.2893 79.8391 20.5069C79.6034 20.7155 79.3223 20.8197 78.9959 20.8197C78.6695 20.8197 78.3839 20.7155 78.1391 20.5069C77.9034 20.2893 77.7855 19.9947 77.7855 19.6229C77.7855 19.2512 77.9034 18.9611 78.1391 18.7525C78.3839 18.5349 78.6695 18.4261 78.9959 18.4261C79.3223 18.4261 79.6034 18.5349 79.8391 18.7525C80.0839 18.9611 80.2063 19.2512 80.2063 19.6229ZM83.648 25.2125C83.648 25.8381 83.7885 26.3413 84.0696 26.7221C84.3506 27.1029 84.7677 27.2933 85.3208 27.2933C85.5021 27.2933 85.6698 27.2888 85.824 27.2797C85.9781 27.2616 86.105 27.2435 86.2048 27.2253V23.5397C86.0778 23.4581 85.9101 23.3901 85.7016 23.3357C85.5021 23.2813 85.2981 23.2541 85.0896 23.2541C84.1285 23.2541 83.648 23.9069 83.648 25.2125ZM88.2312 28.6125C88.0498 28.6669 87.8413 28.7213 87.6056 28.7757C87.3698 28.8211 87.1205 28.8619 86.8576 28.8982C86.6037 28.9344 86.3408 28.9616 86.0688 28.9798C85.8058 29.007 85.552 29.0206 85.3072 29.0206C84.7178 29.0206 84.192 28.9344 83.7296 28.7621C83.2672 28.5899 82.8773 28.3451 82.56 28.0277C82.2426 27.7013 81.9978 27.3115 81.8256 26.8581C81.6624 26.3957 81.5808 25.8789 81.5808 25.3077C81.5808 24.7275 81.6533 24.2061 81.7984 23.7437C81.9434 23.2723 82.152 22.8733 82.424 22.5469C82.696 22.2205 83.0269 21.9712 83.4168 21.7989C83.8157 21.6267 84.269 21.5405 84.7768 21.5405C85.0578 21.5405 85.3072 21.5677 85.5248 21.6221C85.7514 21.6765 85.9781 21.7536 86.2048 21.8533V18.6165L88.2312 18.2901V28.6125ZM92.8622 27.4293C93.0616 27.4293 93.252 27.4248 93.4334 27.4157C93.6147 27.4067 93.7598 27.3931 93.8686 27.3749V25.8381C93.787 25.82 93.6646 25.8019 93.5014 25.7837C93.3382 25.7656 93.1886 25.7565 93.0526 25.7565C92.8622 25.7565 92.6808 25.7701 92.5086 25.7973C92.3454 25.8155 92.2003 25.8563 92.0734 25.9197C91.9464 25.9832 91.8467 26.0693 91.7742 26.1781C91.7016 26.2869 91.6654 26.4229 91.6654 26.5861C91.6654 26.9035 91.7696 27.1256 91.9782 27.2525C92.1958 27.3704 92.4904 27.4293 92.8622 27.4293ZM92.699 21.4997C93.2974 21.4997 93.796 21.5677 94.195 21.7037C94.5939 21.8397 94.9112 22.0347 95.147 22.2885C95.3918 22.5424 95.564 22.8507 95.6638 23.2133C95.7635 23.576 95.8134 23.9795 95.8134 24.4237V28.6397C95.5232 28.7032 95.1198 28.7757 94.603 28.8574C94.0862 28.948 93.4606 28.9934 92.7262 28.9934C92.2638 28.9934 91.8422 28.9526 91.4614 28.871C91.0896 28.7893 90.7678 28.6579 90.4958 28.4765C90.2238 28.2861 90.0152 28.0413 89.8702 27.7421C89.7251 27.4429 89.6526 27.0757 89.6526 26.6405C89.6526 26.2235 89.7342 25.8699 89.8974 25.5797C90.0696 25.2896 90.2963 25.0584 90.5774 24.8861C90.8584 24.7139 91.1803 24.5915 91.543 24.5189C91.9056 24.4373 92.2819 24.3965 92.6718 24.3965C92.9347 24.3965 93.1659 24.4101 93.3654 24.4373C93.5739 24.4555 93.7416 24.4827 93.8686 24.5189V24.3285C93.8686 23.984 93.7643 23.7075 93.5558 23.4989C93.3472 23.2904 92.9846 23.1861 92.4678 23.1861C92.1232 23.1861 91.7832 23.2133 91.4478 23.2677C91.1123 23.3131 90.8222 23.3811 90.5774 23.4717L90.319 21.8397C90.4368 21.8035 90.5819 21.7672 90.7542 21.7309C90.9355 21.6856 91.1304 21.6493 91.339 21.6221C91.5475 21.5859 91.7651 21.5587 91.9918 21.5405C92.2275 21.5133 92.4632 21.4997 92.699 21.4997Z" fill="#434242"/>
<defs>
<clipPath id="clip0_322_306">
<rect width="25" height="28.5625" fill="#434242" transform="translate(0.828125 2.5625)"/>
</clipPath>
</defs>
</svg>
