<svg width="86" height="32" viewBox="0 0 86 32" fill="none" xmlns="http://www.w3.org/2000/svg">
<g clip-path="url(#clip0_322_292)">
<path d="M29.5625 16.7969C29.5625 24.8223 23.0567 31.3281 15.0312 31.3281C7.00584 31.3281 0.5 24.8223 0.5 16.7969C0.5 8.77147 7.00584 2.26562 15.0312 2.26562C23.0567 2.26562 29.5625 8.77147 29.5625 16.7969ZM13.3504 24.4911L24.1317 13.7098C24.4978 13.3437 24.4978 12.7501 24.1317 12.384L22.8059 11.0582C22.4398 10.6921 21.8462 10.6921 21.48 11.0582L12.6875 19.8507L8.58248 15.7456C8.21639 15.3796 7.62277 15.3796 7.25662 15.7456L5.93082 17.0714C5.56473 17.4375 5.56473 18.0312 5.93082 18.3972L12.0246 24.491C12.3907 24.8571 12.9843 24.8571 13.3504 24.4911Z" fill="#434242"/>
</g>
<path d="M42.0505 14.0946C41.3887 14.0946 40.7857 13.9858 40.2417 13.7682C39.6977 13.5506 39.2308 13.2333 38.8409 12.8162C38.4511 12.3992 38.1473 11.8869 37.9297 11.2794C37.7212 10.6629 37.6169 9.96022 37.6169 9.17142C37.6169 8.38262 37.7348 7.68449 37.9705 7.07702C38.2153 6.46049 38.5417 5.94369 38.9497 5.52662C39.3577 5.10956 39.8337 4.79222 40.3777 4.57462C40.9217 4.35702 41.502 4.24822 42.1185 4.24822C42.5084 4.24822 42.8575 4.27542 43.1657 4.32982C43.4831 4.38422 43.7551 4.44769 43.9817 4.52022C44.2175 4.59276 44.4079 4.66529 44.5529 4.73782C44.698 4.81036 44.7977 4.86476 44.8521 4.90102L44.4713 5.98902C44.3897 5.93462 44.2719 5.87569 44.1177 5.81222C43.9636 5.74876 43.7868 5.68529 43.5873 5.62182C43.3969 5.55836 43.1839 5.50849 42.9481 5.47222C42.7215 5.42689 42.4903 5.40422 42.2545 5.40422C41.7559 5.40422 41.3071 5.49036 40.9081 5.66262C40.5092 5.83489 40.1692 6.08422 39.8881 6.41062C39.6071 6.73702 39.3895 7.13596 39.2353 7.60742C39.0903 8.06982 39.0177 8.59116 39.0177 9.17142C39.0177 9.73356 39.0812 10.2458 39.2081 10.7082C39.3441 11.1706 39.5436 11.5696 39.8065 11.905C40.0695 12.2314 40.3959 12.4853 40.7857 12.6666C41.1847 12.848 41.6471 12.9386 42.1729 12.9386C42.7804 12.9386 43.2836 12.8752 43.6825 12.7482C44.0815 12.6213 44.3807 12.508 44.5801 12.4082L44.9201 13.4962C44.8567 13.5416 44.7433 13.6005 44.5801 13.673C44.4169 13.7365 44.2129 13.8 43.9681 13.8634C43.7233 13.9269 43.4377 13.9813 43.1113 14.0266C42.7849 14.072 42.4313 14.0946 42.0505 14.0946ZM52.3929 10.3546C52.3929 10.9168 52.3113 11.4245 52.1481 11.8778C51.9849 12.3312 51.7537 12.721 51.4545 13.0474C51.1644 13.3738 50.8153 13.6277 50.4073 13.809C49.9993 13.9813 49.555 14.0674 49.0745 14.0674C48.594 14.0674 48.1497 13.9813 47.7417 13.809C47.3337 13.6277 46.9801 13.3738 46.6809 13.0474C46.3908 12.721 46.1641 12.3312 46.0009 11.8778C45.8377 11.4245 45.7561 10.9168 45.7561 10.3546C45.7561 9.80156 45.8377 9.29836 46.0009 8.84502C46.1641 8.38262 46.3908 7.98822 46.6809 7.66182C46.9801 7.33542 47.3337 7.08609 47.7417 6.91382C48.1497 6.73249 48.594 6.64182 49.0745 6.64182C49.555 6.64182 49.9993 6.73249 50.4073 6.91382C50.8153 7.08609 51.1644 7.33542 51.4545 7.66182C51.7537 7.98822 51.9849 8.38262 52.1481 8.84502C52.3113 9.29836 52.3929 9.80156 52.3929 10.3546ZM51.0737 10.3546C51.0737 9.55676 50.8924 8.92662 50.5297 8.46422C50.1761 7.99276 49.691 7.75702 49.0745 7.75702C48.458 7.75702 47.9684 7.99276 47.6057 8.46422C47.2521 8.92662 47.0753 9.55676 47.0753 10.3546C47.0753 11.1525 47.2521 11.7872 47.6057 12.2586C47.9684 12.721 48.458 12.9522 49.0745 12.9522C49.691 12.9522 50.1761 12.721 50.5297 12.2586C50.8924 11.7872 51.0737 11.1525 51.0737 10.3546ZM54.1724 7.02262C54.4625 6.95009 54.8433 6.87302 55.3148 6.79142C55.7953 6.70982 56.3484 6.66902 56.974 6.66902C57.4273 6.66902 57.8081 6.73249 58.1164 6.85942C58.4246 6.97729 58.683 7.15409 58.8916 7.38982C58.955 7.34449 59.0548 7.28102 59.1908 7.19942C59.3268 7.11782 59.4945 7.04076 59.694 6.96822C59.8934 6.88662 60.1156 6.81862 60.3604 6.76422C60.6052 6.70076 60.8681 6.66902 61.1492 6.66902C61.6932 6.66902 62.1374 6.75062 62.482 6.91382C62.8265 7.06796 63.094 7.29009 63.2844 7.58022C63.4838 7.87036 63.6153 8.21489 63.6788 8.61382C63.7513 9.01276 63.7876 9.44796 63.7876 9.91942V13.8906H62.5228V10.1914C62.5228 9.77436 62.5001 9.41622 62.4548 9.11702C62.4185 8.81782 62.3414 8.56849 62.2236 8.36902C62.1148 8.16956 61.9606 8.02449 61.7612 7.93382C61.5708 7.83409 61.3214 7.78422 61.0132 7.78422C60.587 7.78422 60.2334 7.84316 59.9524 7.96102C59.6804 8.06982 59.4945 8.16956 59.3948 8.26022C59.4673 8.49596 59.5217 8.75436 59.558 9.03542C59.5942 9.31649 59.6124 9.61116 59.6124 9.91942V13.8906H58.3476V10.1914C58.3476 9.77436 58.3249 9.41622 58.2796 9.11702C58.2342 8.81782 58.1526 8.56849 58.0348 8.36902C57.926 8.16956 57.7718 8.02449 57.5724 7.93382C57.382 7.83409 57.1372 7.78422 56.838 7.78422C56.711 7.78422 56.575 7.78876 56.43 7.79782C56.2849 7.80689 56.1444 7.82049 56.0084 7.83862C55.8814 7.84769 55.7636 7.86129 55.6548 7.87942C55.546 7.89756 55.4734 7.91116 55.4372 7.92022V13.8906H54.1724V7.02262ZM70.796 10.3682C70.796 9.54316 70.592 8.90849 70.184 8.46422C69.776 8.01996 69.232 7.79782 68.552 7.79782C68.1712 7.79782 67.872 7.81142 67.6544 7.83862C67.4459 7.86582 67.2782 7.89756 67.1512 7.93382V12.3946C67.3054 12.5216 67.5275 12.644 67.8176 12.7618C68.1078 12.8797 68.4251 12.9386 68.7696 12.9386C69.1323 12.9386 69.4406 12.8752 69.6944 12.7482C69.9574 12.6122 70.1704 12.4309 70.3336 12.2042C70.4968 11.9685 70.6147 11.6965 70.6872 11.3882C70.7598 11.0709 70.796 10.7309 70.796 10.3682ZM72.1152 10.3682C72.1152 10.9032 72.0427 11.3973 71.8976 11.8506C71.7616 12.304 71.5576 12.6938 71.2856 13.0202C71.0136 13.3466 70.6782 13.6005 70.2792 13.7818C69.8894 13.9632 69.4406 14.0538 68.9328 14.0538C68.5248 14.0538 68.1622 13.9994 67.8448 13.8906C67.5366 13.7818 67.3054 13.6776 67.1512 13.5778V16.4066H65.8864V7.03622C66.1856 6.96369 66.5574 6.88662 67.0016 6.80502C67.455 6.71436 67.9763 6.66902 68.5656 6.66902C69.1096 6.66902 69.5992 6.75516 70.0344 6.92742C70.4696 7.09969 70.8414 7.34449 71.1496 7.66182C71.4579 7.97916 71.6936 8.36902 71.8568 8.83142C72.0291 9.28476 72.1152 9.79702 72.1152 10.3682ZM76.5062 6.66902C76.615 6.66902 76.7374 6.67809 76.8734 6.69622C77.0185 6.70529 77.159 6.72342 77.295 6.75062C77.431 6.76876 77.5534 6.79142 77.6622 6.81862C77.7801 6.83676 77.8662 6.85489 77.9206 6.87302L77.703 7.97462C77.6033 7.93836 77.4356 7.89756 77.1998 7.85222C76.9732 7.79782 76.6785 7.77062 76.3158 7.77062C76.0801 7.77062 75.8444 7.79782 75.6086 7.85222C75.382 7.89756 75.2324 7.92929 75.1598 7.94742V13.8906H73.895V7.11782C74.1942 7.00902 74.566 6.90929 75.0102 6.81862C75.4545 6.71889 75.9532 6.66902 76.5062 6.66902ZM81.5347 12.9794C81.8339 12.9794 82.0969 12.9749 82.3235 12.9658C82.5593 12.9477 82.7542 12.9205 82.9083 12.8842V10.7762C82.8177 10.7309 82.6681 10.6946 82.4595 10.6674C82.2601 10.6312 82.0153 10.613 81.7251 10.613C81.5347 10.613 81.3307 10.6266 81.1131 10.6538C80.9046 10.681 80.7097 10.74 80.5283 10.8306C80.3561 10.9122 80.211 11.0301 80.0931 11.1842C79.9753 11.3293 79.9163 11.5242 79.9163 11.769C79.9163 12.2224 80.0614 12.5397 80.3515 12.721C80.6417 12.8933 81.0361 12.9794 81.5347 12.9794ZM81.4259 6.64182C81.9337 6.64182 82.3598 6.70982 82.7043 6.84582C83.0579 6.97276 83.339 7.15862 83.5475 7.40342C83.7651 7.63916 83.9193 7.92476 84.0099 8.26022C84.1006 8.58662 84.1459 8.94929 84.1459 9.34822V13.7682C84.0371 13.7864 83.883 13.8136 83.6835 13.8498C83.4931 13.877 83.2755 13.9042 83.0307 13.9314C82.7859 13.9586 82.5185 13.9813 82.2283 13.9994C81.9473 14.0266 81.6662 14.0402 81.3851 14.0402C80.9862 14.0402 80.619 13.9994 80.2835 13.9178C79.9481 13.8362 79.6579 13.7093 79.4131 13.537C79.1683 13.3557 78.9779 13.12 78.8419 12.8298C78.7059 12.5397 78.6379 12.1906 78.6379 11.7826C78.6379 11.3928 78.715 11.0573 78.8691 10.7762C79.0323 10.4952 79.2499 10.2685 79.5219 10.0962C79.7939 9.92396 80.1113 9.79702 80.4739 9.71542C80.8366 9.63382 81.2174 9.59302 81.6163 9.59302C81.7433 9.59302 81.8747 9.60209 82.0107 9.62022C82.1467 9.62929 82.2737 9.64742 82.3915 9.67462C82.5185 9.69276 82.6273 9.71089 82.7179 9.72902C82.8086 9.74716 82.8721 9.76076 82.9083 9.76982V9.41622C82.9083 9.20769 82.8857 9.00369 82.8403 8.80422C82.795 8.59569 82.7134 8.41436 82.5955 8.26022C82.4777 8.09702 82.3145 7.97009 82.1059 7.87942C81.9065 7.77969 81.6435 7.72982 81.3171 7.72982C80.9001 7.72982 80.5329 7.76156 80.2155 7.82502C79.9073 7.87942 79.6761 7.93836 79.5219 8.00182L79.3723 6.95462C79.5355 6.88209 79.8075 6.81409 80.1883 6.75062C80.5691 6.67809 80.9817 6.64182 81.4259 6.64182Z" fill="#434242"/>
<path d="M40.4865 27.2253C40.7857 27.2253 41.0305 27.2027 41.2209 27.1573C41.4204 27.1029 41.5791 27.0349 41.6969 26.9533C41.8148 26.8627 41.8964 26.7584 41.9417 26.6405C41.9871 26.5227 42.0097 26.3912 42.0097 26.2461C42.0097 25.9379 41.8647 25.684 41.5745 25.4845C41.2844 25.276 40.7857 25.0539 40.0785 24.8181C39.7703 24.7093 39.462 24.5869 39.1537 24.4509C38.8455 24.3059 38.5689 24.1291 38.3241 23.9205C38.0793 23.7029 37.8799 23.4445 37.7257 23.1453C37.5716 22.8371 37.4945 22.4653 37.4945 22.0301C37.4945 21.5949 37.5761 21.2051 37.7393 20.8605C37.9025 20.5069 38.1337 20.2077 38.4329 19.9629C38.7321 19.7181 39.0948 19.5323 39.5209 19.4053C39.9471 19.2693 40.4276 19.2013 40.9625 19.2013C41.5972 19.2013 42.1457 19.2693 42.6081 19.4053C43.0705 19.5413 43.4513 19.6909 43.7505 19.8541L43.1385 21.5269C42.8756 21.3909 42.5809 21.2731 42.2545 21.1733C41.9372 21.0645 41.5519 21.0101 41.0985 21.0101C40.5908 21.0101 40.2236 21.0827 39.9969 21.2277C39.7793 21.3637 39.6705 21.5768 39.6705 21.8669C39.6705 22.0392 39.7113 22.1843 39.7929 22.3021C39.8745 22.42 39.9879 22.5288 40.1329 22.6285C40.2871 22.7192 40.4593 22.8053 40.6497 22.8869C40.8492 22.9595 41.0668 23.0365 41.3025 23.1181C41.7921 23.2995 42.2183 23.4808 42.5809 23.6621C42.9436 23.8344 43.2428 24.0384 43.4785 24.2741C43.7233 24.5099 43.9047 24.7864 44.0225 25.1037C44.1404 25.4211 44.1993 25.8064 44.1993 26.2597C44.1993 27.1392 43.8911 27.8237 43.2745 28.3133C42.658 28.7939 41.7287 29.0342 40.4865 29.0342C40.0695 29.0342 39.6932 29.007 39.3577 28.9526C39.0223 28.9072 38.7231 28.8483 38.4601 28.7757C38.2063 28.7032 37.9841 28.6261 37.7937 28.5445C37.6124 28.4629 37.4583 28.3859 37.3313 28.3133L37.9297 26.6269C38.2108 26.7811 38.5553 26.9216 38.9633 27.0485C39.3804 27.1664 39.8881 27.2253 40.4865 27.2253ZM45.3558 25.3213C45.3558 24.6867 45.451 24.1336 45.6414 23.6621C45.8408 23.1816 46.0992 22.7827 46.4166 22.4653C46.7339 22.148 47.0966 21.9077 47.5046 21.7445C47.9216 21.5813 48.3478 21.4997 48.783 21.4997C49.7984 21.4997 50.6008 21.8125 51.1902 22.4381C51.7795 23.0547 52.0742 23.9659 52.0742 25.1717C52.0742 25.2896 52.0696 25.4211 52.0606 25.5661C52.0515 25.7021 52.0424 25.8245 52.0334 25.9333H47.4366C47.4819 26.3504 47.6768 26.6813 48.0214 26.9261C48.3659 27.1709 48.8283 27.2933 49.4086 27.2933C49.7803 27.2933 50.143 27.2616 50.4966 27.1981C50.8592 27.1256 51.1539 27.0395 51.3806 26.9397L51.6526 28.5853C51.5438 28.6397 51.3987 28.6941 51.2174 28.7485C51.036 28.8029 50.832 28.8483 50.6054 28.8846C50.3878 28.9299 50.152 28.9662 49.8982 28.9934C49.6443 29.0206 49.3904 29.0342 49.1366 29.0342C48.4928 29.0342 47.9307 28.939 47.4502 28.7485C46.9787 28.5581 46.5843 28.2997 46.267 27.9733C45.9587 27.6379 45.7275 27.2435 45.5734 26.7901C45.4283 26.3368 45.3558 25.8472 45.3558 25.3213ZM50.1158 24.5461C50.1067 24.3739 50.075 24.2061 50.0206 24.0429C49.9752 23.8797 49.8982 23.7347 49.7894 23.6077C49.6896 23.4808 49.5582 23.3765 49.395 23.2949C49.2408 23.2133 49.0459 23.1725 48.8102 23.1725C48.5835 23.1725 48.3886 23.2133 48.2254 23.2949C48.0622 23.3675 47.9262 23.4672 47.8174 23.5941C47.7086 23.7211 47.6224 23.8707 47.559 24.0429C47.5046 24.2061 47.4638 24.3739 47.4366 24.5461H50.1158ZM55.3651 25.0357C55.3651 26.1691 55.823 26.7357 56.7387 26.7357C56.9473 26.7357 57.1422 26.7085 57.3235 26.6541C57.5049 26.5997 57.659 26.5363 57.7859 26.4637V23.2269C57.6862 23.2088 57.5683 23.1952 57.4323 23.1861C57.2963 23.168 57.1377 23.1589 56.9563 23.1589C56.4214 23.1589 56.0225 23.3357 55.7595 23.6893C55.4966 24.0429 55.3651 24.4917 55.3651 25.0357ZM59.8123 27.9461C59.8123 29.1158 59.5131 29.9816 58.9147 30.5438C58.3254 31.115 57.4097 31.4006 56.1675 31.4006C55.7323 31.4006 55.2971 31.3598 54.8619 31.2782C54.4267 31.2056 54.0233 31.1059 53.6515 30.979L54.0051 29.279C54.3225 29.4059 54.6534 29.5056 54.9979 29.5782C55.3515 29.6507 55.7505 29.687 56.1947 29.687C56.775 29.687 57.183 29.56 57.4187 29.3062C57.6635 29.0523 57.7859 28.7259 57.7859 28.3269V28.0685C57.5683 28.1683 57.3417 28.2453 57.1059 28.2997C56.8793 28.3451 56.6299 28.3677 56.3579 28.3677C55.3697 28.3677 54.6126 28.0776 54.0867 27.4973C53.5609 26.908 53.2979 26.0875 53.2979 25.0357C53.2979 24.5099 53.3795 24.0339 53.5427 23.6077C53.7059 23.1725 53.9417 22.8008 54.2499 22.4925C54.5673 22.1843 54.9526 21.9485 55.4059 21.7853C55.8593 21.6131 56.3715 21.5269 56.9427 21.5269C57.1875 21.5269 57.4369 21.5405 57.6907 21.5677C57.9537 21.5859 58.2121 21.6131 58.4659 21.6493C58.7198 21.6856 58.9601 21.7309 59.1867 21.7853C59.4225 21.8307 59.631 21.8805 59.8123 21.9349V27.9461ZM67.8193 28.5989C67.4748 28.6987 67.0305 28.7893 66.4865 28.871C65.9425 28.9616 65.3713 29.007 64.7729 29.007C64.1655 29.007 63.6577 28.9254 63.2497 28.7621C62.8508 28.5989 62.5335 28.3723 62.2977 28.0821C62.062 27.7829 61.8943 27.4293 61.7945 27.0213C61.6948 26.6133 61.6449 26.1645 61.6449 25.6749V21.6901H63.6713V25.4301C63.6713 26.0829 63.7575 26.5544 63.9297 26.8445C64.102 27.1347 64.4239 27.2797 64.8953 27.2797C65.0404 27.2797 65.1945 27.2752 65.3577 27.2661C65.5209 27.248 65.666 27.2299 65.7929 27.2117V21.6901H67.8193V28.5989ZM74.0327 23.4853C73.8514 23.44 73.6383 23.3947 73.3935 23.3493C73.1487 23.2949 72.8858 23.2677 72.6047 23.2677C72.4778 23.2677 72.3237 23.2813 72.1423 23.3085C71.9701 23.3267 71.8386 23.3493 71.7479 23.3765V28.8438H69.7215V22.0709C70.0842 21.944 70.5103 21.8261 70.9999 21.7173C71.4986 21.5995 72.0517 21.5405 72.6591 21.5405C72.7679 21.5405 72.8994 21.5496 73.0535 21.5677C73.2077 21.5768 73.3618 21.5949 73.5159 21.6221C73.6701 21.6403 73.8242 21.6675 73.9783 21.7037C74.1325 21.7309 74.2639 21.7672 74.3727 21.8125L74.0327 23.4853ZM78.0598 27.4293C78.2593 27.4293 78.4497 27.4248 78.631 27.4157C78.8124 27.4067 78.9574 27.3931 79.0662 27.3749V25.8381C78.9846 25.82 78.8622 25.8019 78.699 25.7837C78.5358 25.7656 78.3862 25.7565 78.2502 25.7565C78.0598 25.7565 77.8785 25.7701 77.7062 25.7973C77.543 25.8155 77.398 25.8563 77.271 25.9197C77.1441 25.9832 77.0444 26.0693 76.9718 26.1781C76.8993 26.2869 76.863 26.4229 76.863 26.5861C76.863 26.9035 76.9673 27.1256 77.1758 27.2525C77.3934 27.3704 77.6881 27.4293 78.0598 27.4293ZM77.8966 21.4997C78.495 21.4997 78.9937 21.5677 79.3926 21.7037C79.7916 21.8397 80.1089 22.0347 80.3446 22.2885C80.5894 22.5424 80.7617 22.8507 80.8614 23.2133C80.9612 23.576 81.011 23.9795 81.011 24.4237V28.6397C80.7209 28.7032 80.3174 28.7757 79.8006 28.8574C79.2838 28.948 78.6582 28.9934 77.9238 28.9934C77.4614 28.9934 77.0398 28.9526 76.659 28.871C76.2873 28.7893 75.9654 28.6579 75.6934 28.4765C75.4214 28.2861 75.2129 28.0413 75.0678 27.7421C74.9228 27.4429 74.8502 27.0757 74.8502 26.6405C74.8502 26.2235 74.9318 25.8699 75.095 25.5797C75.2673 25.2896 75.494 25.0584 75.775 24.8861C76.0561 24.7139 76.378 24.5915 76.7406 24.5189C77.1033 24.4373 77.4796 24.3965 77.8694 24.3965C78.1324 24.3965 78.3636 24.4101 78.563 24.4373C78.7716 24.4555 78.9393 24.4827 79.0662 24.5189V24.3285C79.0662 23.984 78.962 23.7075 78.7534 23.4989C78.5449 23.2904 78.1822 23.1861 77.6654 23.1861C77.3209 23.1861 76.9809 23.2133 76.6454 23.2677C76.31 23.3131 76.0198 23.3811 75.775 23.4717L75.5166 21.8397C75.6345 21.8035 75.7796 21.7672 75.9518 21.7309C76.1332 21.6856 76.3281 21.6493 76.5366 21.6221C76.7452 21.5859 76.9628 21.5587 77.1894 21.5405C77.4252 21.5133 77.6609 21.4997 77.8966 21.4997Z" fill="#434242"/>
<defs>
<clipPath id="clip0_322_292">
<rect width="30" height="30" fill="#434242" transform="translate(0.03125 1.79688)"/>
</clipPath>
</defs>
</svg>
