<svg width="31" height="19" viewBox="0 0 31 19" fill="none" xmlns="http://www.w3.org/2000/svg">
<g clip-path="url(#clip0_322_498)">
<path fill-rule="evenodd" clip-rule="evenodd" d="M31 16.625C31 17.9312 29.8375 19 28.4167 19H2.58333C1.1625 19 0 17.9312 0 16.625V2.375C0 1.06875 1.1625 0 2.58333 0H28.4167C29.8375 0 31 1.06875 31 2.375V16.625Z" fill="white"/>
<path d="M28.4167 0H2.58333C1.1625 0 0 1.06875 0 2.375V16.625C0 17.9312 1.1625 19 2.58333 19H28.4167C29.8375 19 31 17.9312 31 16.625V2.375C31 1.06875 29.8375 0 28.4167 0ZM28.4167 0.475C29.5564 0.475 30.4833 1.32715 30.4833 2.375V16.625C30.4833 17.6728 29.5564 18.525 28.4167 18.525H2.58333C1.44357 18.525 0.516667 17.6728 0.516667 16.625V2.375C0.516667 1.32715 1.44357 0.475 2.58333 0.475H28.4167Z" fill="#D0D0D0"/>
<path d="M18.2226 13.5902C20.6763 13.5902 22.6654 11.7615 22.6654 9.50567C22.6654 7.24985 20.6763 5.42114 18.2226 5.42114C15.7689 5.42114 13.7798 7.24985 13.7798 9.50567C13.7798 11.7615 15.7689 13.5902 18.2226 13.5902Z" fill="#F79E1B"/>
<path d="M12.7773 13.5787C15.231 13.5787 17.2201 11.75 17.2201 9.49419C17.2201 7.23837 15.231 5.40967 12.7773 5.40967C10.3236 5.40967 8.33447 7.23837 8.33447 9.49419C8.33447 11.75 10.3236 13.5787 12.7773 13.5787Z" fill="#EB001B"/>
<path fill-rule="evenodd" clip-rule="evenodd" d="M13.7798 9.49677C13.7767 10.8097 14.4468 11.9791 15.4915 12.7287C16.5403 11.9834 17.2167 10.8173 17.2203 9.50485C17.2234 8.19195 16.5533 7.0225 15.5086 6.27295C14.4592 7.01727 13.7829 8.18387 13.7798 9.49677Z" fill="#FF5F00"/>
</g>
<defs>
<clipPath id="clip0_322_498">
<rect width="31" height="19" fill="white"/>
</clipPath>
</defs>
</svg>
