<svg width="19" height="19" viewBox="0 0 19 19" fill="none" xmlns="http://www.w3.org/2000/svg">
<path d="M17.7051 13.157L13.7676 11.4695C13.5994 11.3978 13.4125 11.3827 13.2349 11.4264C13.0574 11.4702 12.8989 11.5704 12.7832 11.712L11.0395 13.8425C8.30284 12.5522 6.10046 10.3498 4.81016 7.61317L6.94062 5.86942C7.08254 5.75399 7.18299 5.59547 7.22676 5.41785C7.27053 5.24024 7.25524 5.05319 7.1832 4.88504L5.4957 0.947543C5.41664 0.76628 5.27681 0.618285 5.10032 0.529077C4.92383 0.439869 4.72174 0.41504 4.52891 0.458871L0.872656 1.30262C0.686739 1.34555 0.520864 1.45023 0.402102 1.59958C0.283341 1.74893 0.218707 1.93412 0.21875 2.12493C0.21875 11.1425 7.52773 18.4374 16.5312 18.4374C16.7221 18.4375 16.9074 18.3729 17.0568 18.2542C17.2062 18.1354 17.311 17.9695 17.3539 17.7835L18.1977 14.1273C18.2412 13.9335 18.2158 13.7306 18.126 13.5535C18.0361 13.3764 17.8872 13.2362 17.7051 13.157Z" fill="white"/>
</svg>
