<svg width="31" height="19" viewBox="0 0 31 19" fill="none" xmlns="http://www.w3.org/2000/svg">
<g clip-path="url(#clip0_322_489)">
<path fill-rule="evenodd" clip-rule="evenodd" d="M31 16.625C31 17.9312 29.8375 19 28.4167 19H2.58333C1.1625 19 0 17.9312 0 16.625V2.375C0 1.06875 1.1625 0 2.58333 0H28.4167C29.8375 0 31 1.06875 31 2.375V16.625Z" fill="white"/>
<path d="M28.4167 0H2.58333C1.1625 0 0 1.06875 0 2.375V16.625C0 17.9312 1.1625 19 2.58333 19H28.4167C29.8375 19 31 17.9312 31 16.625V2.375C31 1.06875 29.8375 0 28.4167 0ZM28.4167 0.475C29.5564 0.475 30.4833 1.32715 30.4833 2.375V16.625C30.4833 17.6728 29.5564 18.525 28.4167 18.525H2.58333C1.44357 18.525 0.516667 17.6728 0.516667 16.625V2.375C0.516667 1.32715 1.44357 0.475 2.58333 0.475H28.4167Z" fill="#D0D0D0"/>
<path d="M22.0858 10.2411C21.9427 9.61174 21.8027 8.99329 21.6621 8.37484C21.6554 8.37437 21.6487 8.37389 21.642 8.37294C21.3976 8.99282 21.1532 9.61269 20.9052 10.2406C21.3051 10.2411 21.6864 10.2411 22.0858 10.2411ZM18.7021 12.0347C18.7869 11.8471 18.8706 11.6623 18.9548 11.4775C19.5774 10.11 20.2005 8.74249 20.8231 7.37449C20.9445 7.10754 21.1604 6.97169 21.4777 6.97264C21.8409 6.97407 22.2036 6.97407 22.5668 6.97169C22.636 6.97122 22.667 6.98452 22.6831 7.05482C23.0504 8.68312 23.4214 10.3105 23.7918 11.9378C23.7991 11.9696 23.8032 12.0024 23.8094 12.039C23.3713 12.039 22.9373 12.039 22.4955 12.039C22.4459 11.82 22.3927 11.6044 22.3498 11.3863C22.3338 11.3046 22.2987 11.2823 22.2098 11.2828C21.6704 11.2871 21.1305 11.2861 20.5911 11.2833C20.5167 11.2828 20.4821 11.3042 20.4583 11.3692C20.3834 11.574 20.3028 11.7768 20.2186 11.9787C20.2072 12.0062 20.1628 12.0399 20.1333 12.0399C19.6688 12.0437 19.2043 12.0423 18.7399 12.0418C18.7306 12.0423 18.7213 12.0385 18.7021 12.0347Z" fill="#152884"/>
<path fill-rule="evenodd" clip-rule="evenodd" d="M19.032 7.10782C18.9494 7.46312 18.8672 7.81414 18.7851 8.16802C18.6285 8.12004 18.4797 8.0678 18.3268 8.02884C17.9894 7.94287 17.6453 7.90582 17.2991 7.96757C17.1746 7.9899 17.0465 8.03834 16.9426 8.10484C16.7127 8.25162 16.7055 8.49387 16.9292 8.64919C17.1002 8.76794 17.2935 8.85915 17.4774 8.96175C17.7063 9.08905 17.9481 9.19972 18.163 9.3446C18.7096 9.7132 18.8915 10.2252 18.706 10.8252C18.5314 11.3899 18.1 11.7286 17.5249 11.9324C16.9979 12.1191 16.4487 12.1457 15.8933 12.1043C15.544 12.0782 15.2004 12.0222 14.8682 11.9158C14.8135 11.8982 14.7597 11.8778 14.6982 11.8559C14.7845 11.4835 14.8698 11.1182 14.9524 10.7606C15.1886 10.837 15.4149 10.9244 15.6494 10.9833C15.9992 11.0707 16.3593 11.1026 16.7163 11.0289C16.8553 11.0004 16.9974 10.942 17.1121 10.8651C17.3265 10.7207 17.3425 10.4547 17.1421 10.2941C16.9912 10.1735 16.8114 10.0823 16.6399 9.98489C16.3821 9.8386 16.1046 9.71747 15.8628 9.55169C15.0558 8.99832 15.1999 8.16232 15.6189 7.66167C15.93 7.29022 16.3567 7.08454 16.8409 6.97434C17.5549 6.81189 18.2596 6.85845 18.953 7.07837C18.9783 7.08692 19.0016 7.09642 19.032 7.10782Z" fill="#152884"/>
<path fill-rule="evenodd" clip-rule="evenodd" d="M14.8929 6.98068C14.8551 7.14693 14.819 7.31033 14.7807 7.47325C14.4361 8.95478 14.09 10.4363 13.749 11.9183C13.7267 12.0147 13.6911 12.0475 13.5805 12.0451C13.1915 12.038 12.8024 12.0423 12.4134 12.0423C12.3777 12.0423 12.3426 12.0423 12.2925 12.0423C12.3292 11.8836 12.3633 11.735 12.3979 11.5868C12.7502 10.0729 13.1031 8.5591 13.4545 7.0448C13.4653 6.99778 13.4767 6.9707 13.5387 6.9707C13.9737 6.97308 14.4082 6.97213 14.8433 6.9726C14.8557 6.97355 14.8681 6.97688 14.8929 6.98068Z" fill="#152884"/>
<path fill-rule="evenodd" clip-rule="evenodd" d="M6.18673 6.9726H6.29265C7.04802 6.9726 7.80338 6.97212 8.55875 6.9726C8.95762 6.9726 9.202 7.15975 9.27588 7.51885C9.47118 8.46837 9.66648 9.4179 9.86178 10.3674C9.86282 10.3731 9.86592 10.3788 9.87573 10.4035C9.89692 10.3608 9.91293 10.3318 9.92585 10.3014C10.3909 9.22172 10.8564 8.14205 11.3178 7.06142C11.3482 6.9897 11.387 6.96975 11.4666 6.97022C11.8918 6.97355 12.317 6.97165 12.7417 6.97165H12.8528C12.8316 7.02247 12.8156 7.0638 12.797 7.10417C12.0592 8.72345 11.3209 10.3422 10.5841 11.962C10.5583 12.019 10.5293 12.0442 10.457 12.0432C10.0121 12.0399 9.56728 12.0399 9.12295 12.0432C9.0532 12.0437 9.02943 12.0233 9.01238 11.9625C8.63832 10.6258 8.26012 9.29012 7.88708 7.953C7.83077 7.75207 7.71142 7.6129 7.50733 7.5236C7.09813 7.34405 6.6662 7.23005 6.22755 7.13315C6.20585 7.1284 6.18467 7.12222 6.15625 7.1151C6.16142 7.08945 6.16555 7.06665 6.1702 7.04385C6.17537 7.02437 6.18002 7.00395 6.18673 6.9726Z" fill="#152884"/>
</g>
<defs>
<clipPath id="clip0_322_489">
<rect width="31" height="19" fill="white"/>
</clipPath>
</defs>
</svg>
