<svg width="19" height="19" viewBox="0 0 19 19" fill="none" xmlns="http://www.w3.org/2000/svg">
<path d="M15.5357 3.0559C13.8529 1.36913 11.6119 0.441406 9.23036 0.441406C4.31464 0.441406 0.314587 4.44145 0.314587 9.35718C0.314587 10.9275 0.724231 12.4616 1.50336 13.8151L0.238281 18.4336L4.96525 17.1926C6.26647 17.9035 7.73235 18.277 9.22634 18.277H9.23036C14.1421 18.277 18.2305 14.2769 18.2305 9.36119C18.2305 6.97964 17.2184 4.74266 15.5357 3.0559ZM9.23036 16.7749C7.89701 16.7749 6.59177 16.4175 5.45521 15.7428L5.18613 15.5822L2.38289 16.3171L3.12988 13.5821L2.95317 13.301C2.21019 12.1203 1.82063 10.7588 1.82063 9.35718C1.82063 5.27279 5.14597 1.94745 9.23438 1.94745C11.2143 1.94745 13.0738 2.71854 14.4714 4.12017C15.869 5.52179 16.7284 7.38125 16.7244 9.36119C16.7244 13.4496 13.3147 16.7749 9.23036 16.7749ZM13.2947 11.2247C13.0738 11.1122 11.9774 10.5741 11.7726 10.5018C11.5677 10.4255 11.4191 10.3893 11.2705 10.6142C11.1219 10.8391 10.6962 11.3371 10.5637 11.4897C10.4352 11.6383 10.3027 11.6584 10.0818 11.546C8.77252 10.8913 7.91307 10.3773 7.04961 8.89532C6.82069 8.50175 7.27853 8.52986 7.70424 7.67844C7.77653 7.52985 7.74038 7.40133 7.68415 7.28888C7.62793 7.17643 7.18214 6.08003 6.9974 5.63424C6.81667 5.2005 6.63193 5.26074 6.49539 5.25271C6.36687 5.24468 6.21827 5.24468 6.06968 5.24468C5.92108 5.24468 5.68011 5.3009 5.47529 5.52179C5.27047 5.74669 4.69617 6.28485 4.69617 7.38125C4.69617 8.47765 5.49537 9.5379 5.60381 9.6865C5.71626 9.8351 7.17411 12.0841 9.41108 13.052C10.8248 13.6625 11.379 13.7147 12.0858 13.6102C12.5155 13.546 13.4031 13.0721 13.5878 12.55C13.7726 12.0279 13.7726 11.5821 13.7164 11.4897C13.6641 11.3893 13.5156 11.3331 13.2947 11.2247Z" fill="white"/>
</svg>
